<mxfile host="65bd71144e">
    <diagram id="J605LVN8Bgh7pM-Fw_KW" name="Page-1">
        <mxGraphModel dx="2728" dy="928" grid="1" gridSize="10" guides="1" tooltips="1" connect="1" arrows="1" fold="1" page="1" pageScale="1" pageWidth="1100" pageHeight="850" math="0" shadow="0">
            <root>
                <mxCell id="0"/>
                <mxCell id="1" parent="0"/>
                <UserObject label="baseSepDistance" tooltip="Separation distance between base of filaments&#10;overriden if there is an argv[7]" id="221">
                    <mxCell style="shape=display;whiteSpace=wrap;html=1;size=0.07874015748031496;movable=1;resizable=1;rotatable=1;deletable=1;editable=1;connectable=1;" parent="1" vertex="1">
                        <mxGeometry x="-861" y="302" width="117" height="20" as="geometry"/>
                    </mxCell>
                </UserObject>
                <UserObject label="NFil" tooltip="number of filaments&#10;overriden if there is an argv[4]" id="217">
                    <mxCell style="shape=display;whiteSpace=wrap;html=1;movable=1;resizable=1;rotatable=1;deletable=1;editable=1;connectable=1;" parent="1" vertex="1">
                        <mxGeometry x="-862" y="180" width="40" height="20" as="geometry"/>
                    </mxCell>
                </UserObject>
                <mxCell id="235" value="verboseTF" style="shape=display;whiteSpace=wrap;html=1;size=0.19166666666666668;movable=1;resizable=1;rotatable=1;deletable=1;editable=1;connectable=1;" parent="1" vertex="1">
                    <mxGeometry x="-861" y="140" width="77" height="20" as="geometry"/>
                </mxCell>
                <UserObject label="driveMetropolis.c" tooltip="sets general global variables; runs scripts; runs main" id="73">
                    <mxCell style="rounded=0;whiteSpace=wrap;html=1;" parent="1" vertex="1">
                        <mxGeometry x="23" y="25" width="110" height="20" as="geometry"/>
                    </mxCell>
                </UserObject>
                <mxCell id="80" value="" style="shape=flexArrow;endArrow=classic;html=1;exitX=0.5;exitY=1;exitDx=0;exitDy=0;fillColor=#60a917;strokeColor=#2D7600;fontStyle=0;noEdgeStyle=1;orthogonal=1;endWidth=5;endSize=4;width=3;entryX=0;entryY=0.5;entryDx=0;entryDy=0;" parent="1" source="73" target="74" edge="1">
                    <mxGeometry width="50" height="50" relative="1" as="geometry">
                        <mxPoint x="378" y="283" as="sourcePoint"/>
                        <mxPoint x="480" y="133" as="targetPoint"/>
                        <Array as="points">
                            <mxPoint x="78" y="1029"/>
                        </Array>
                    </mxGeometry>
                </mxCell>
                <UserObject label="outputControl.c" tooltip="sets general global variables; contains functions for organizing the output file" id="212">
                    <mxCell style="rounded=0;whiteSpace=wrap;html=1;" parent="1" vertex="1">
                        <mxGeometry x="-202" y="314" width="100" height="20" as="geometry"/>
                    </mxCell>
                </UserObject>
                <mxCell id="213" value="" style="shape=flexArrow;endArrow=classic;html=1;exitX=0.5;exitY=1;exitDx=0;exitDy=0;fillColor=#60a917;strokeColor=#2D7600;fontStyle=0;noEdgeStyle=1;orthogonal=1;endWidth=5;endSize=4;width=3;entryX=1;entryY=0.5;entryDx=0;entryDy=0;" parent="1" source="73" target="212" edge="1">
                    <mxGeometry width="50" height="50" relative="1" as="geometry">
                        <mxPoint x="-212" y="380.5" as="sourcePoint"/>
                        <mxPoint x="-142" y="382" as="targetPoint"/>
                        <Array as="points">
                            <mxPoint x="78" y="324"/>
                        </Array>
                    </mxGeometry>
                </mxCell>
                <mxCell id="215" style="edgeStyle=none;html=1;entryX=1;entryY=0.5;entryDx=0;entryDy=0;exitX=0;exitY=0.5;exitDx=0;exitDy=0;noEdgeStyle=1;orthogonal=1;" parent="1" source="212" target="214" edge="1">
                    <mxGeometry relative="1" as="geometry">
                        <mxPoint x="-252" y="484.5" as="sourcePoint"/>
                        <mxPoint x="301.5" y="473" as="targetPoint"/>
                    </mxGeometry>
                </mxCell>
                <mxCell id="425" style="edgeStyle=none;html=1;entryX=1;entryY=0.5;entryDx=0;entryDy=0;strokeColor=#B266FF;strokeWidth=2;movable=1;resizable=1;rotatable=1;deletable=1;editable=1;connectable=1;" parent="1" source="217" target="57" edge="1">
                    <mxGeometry relative="1" as="geometry"/>
                </mxCell>
                <mxCell id="430" style="edgeStyle=none;html=1;entryX=1;entryY=0.5;entryDx=0;entryDy=0;strokeColor=#B266FF;strokeWidth=2;movable=1;resizable=1;rotatable=1;deletable=1;editable=1;connectable=1;" parent="1" source="221" target="66" edge="1">
                    <mxGeometry relative="1" as="geometry"/>
                </mxCell>
                <UserObject label="finalizeSummary" tooltip="finalizes summary statistics; where the format of the output file is determined" id="223">
                    <mxCell style="ellipse;whiteSpace=wrap;html=1;" parent="1" vertex="1">
                        <mxGeometry x="-507" y="314" width="120" height="22" as="geometry"/>
                    </mxCell>
                </UserObject>
                <mxCell id="224" style="edgeStyle=none;html=1;entryX=1;entryY=0.5;entryDx=0;entryDy=0;exitX=0;exitY=0.5;exitDx=0;exitDy=0;noEdgeStyle=1;orthogonal=1;" parent="1" source="212" target="223" edge="1">
                    <mxGeometry relative="1" as="geometry">
                        <mxPoint x="-42" y="643" as="sourcePoint"/>
                        <mxPoint x="48.00000000000023" y="654" as="targetPoint"/>
                    </mxGeometry>
                </mxCell>
                <UserObject label="listName" tooltip="output file name&#10;overriden if there is an argv[2]" id="225">
                    <mxCell style="shape=display;whiteSpace=wrap;html=1;size=0.19166666666666668;movable=1;resizable=1;rotatable=1;deletable=1;editable=1;connectable=1;" parent="1" vertex="1">
                        <mxGeometry x="-861" y="100" width="60" height="20" as="geometry"/>
                    </mxCell>
                </UserObject>
                <UserObject label="irLigand" tooltip="Ligand radius measured in Kuhn lengths" id="228">
                    <mxCell style="shape=display;whiteSpace=wrap;html=1;size=0.19166666666666668;" parent="1" vertex="1">
                        <mxGeometry x="-937.75" y="860" width="60" height="20" as="geometry"/>
                    </mxCell>
                </UserObject>
                <UserObject label="brLigand" tooltip="Bound ligand radius measured in Kuhn lengths" id="230">
                    <mxCell style="shape=display;whiteSpace=wrap;html=1;size=0.19166666666666668;" parent="1" vertex="1">
                        <mxGeometry x="-937.75" y="894" width="60" height="20" as="geometry"/>
                    </mxCell>
                </UserObject>
                <UserObject label="baserLigand" tooltip="Radius of &quot;Base&quot; (sphere at base of filaments instead of membrane)" id="231">
                    <mxCell style="shape=display;whiteSpace=wrap;html=1;size=0.19166666666666668;" parent="1" vertex="1">
                        <mxGeometry x="-937.75" y="928" width="91" height="20" as="geometry"/>
                    </mxCell>
                </UserObject>
                <mxCell id="431" style="edgeStyle=none;html=1;exitX=0;exitY=0.5;exitDx=0;exitDy=0;exitPerimeter=0;entryX=1;entryY=0.5;entryDx=0;entryDy=0;strokeColor=#B266FF;strokeWidth=2;movable=1;resizable=1;rotatable=1;deletable=1;editable=1;connectable=1;" parent="1" source="232" target="69" edge="1">
                    <mxGeometry relative="1" as="geometry"/>
                </mxCell>
                <UserObject label="Force" tooltip="Force pulling on ends of filaments&#10;overriden if there is an argv[8]" id="232">
                    <mxCell style="shape=display;whiteSpace=wrap;html=1;size=0.19166666666666668;movable=1;resizable=1;rotatable=1;deletable=1;editable=1;connectable=1;" parent="1" vertex="1">
                        <mxGeometry x="-861" y="340" width="52" height="20" as="geometry"/>
                    </mxCell>
                </UserObject>
                <mxCell id="432" style="edgeStyle=none;html=1;exitX=0;exitY=0.5;exitDx=0;exitDy=0;exitPerimeter=0;entryX=1;entryY=0.5;entryDx=0;entryDy=0;strokeColor=#B266FF;strokeWidth=2;movable=1;resizable=1;rotatable=1;deletable=1;editable=1;connectable=1;" parent="1" source="233" target="72" edge="1">
                    <mxGeometry relative="1" as="geometry"/>
                </mxCell>
                <UserObject label="kdimer" tooltip="Spring constant for ends of filaments     &#10;overriden if there is an argv[9]" id="233">
                    <mxCell style="shape=display;whiteSpace=wrap;html=1;size=0.19166666666666668;movable=1;resizable=1;rotatable=1;deletable=1;editable=1;connectable=1;" parent="1" vertex="1">
                        <mxGeometry x="-861" y="379" width="60" height="20" as="geometry"/>
                    </mxCell>
                </UserObject>
                <UserObject label="dimerDist0" tooltip="Rest separation distance of filament ends&#9;" id="234">
                    <mxCell style="shape=display;whiteSpace=wrap;html=1;size=0.19166666666666668;" parent="1" vertex="1">
                        <mxGeometry x="-937.75" y="962" width="77" height="20" as="geometry"/>
                    </mxCell>
                </UserObject>
                <UserObject label="occupiedSitesNoSpace" tooltip="String used in output to determine which CD3Zeta iSites are 'phosphorylated'" id="236">
                    <mxCell style="shape=display;whiteSpace=wrap;html=1;size=0.07874015748031496;" parent="1" vertex="1">
                        <mxGeometry x="-937.75" y="827" width="138" height="20" as="geometry"/>
                    </mxCell>
                </UserObject>
                <UserObject label="localConcCutoff" tooltip="Distance where ligand is considered 'close enough' for local concentration calculation&#10;" id="237">
                    <mxCell style="shape=display;whiteSpace=wrap;html=1;size=0.07874015748031496;" parent="1" vertex="1">
                        <mxGeometry x="-937.75" y="489" width="96" height="20" as="geometry"/>
                    </mxCell>
                </UserObject>
                <UserObject label="dataRecording" tooltip="Prepare stuff and optionally write to file - this function is called each timestep&#10;" id="246">
                    <mxCell style="ellipse;whiteSpace=wrap;html=1;" parent="1" vertex="1">
                        <mxGeometry x="-507" y="239" width="120" height="22" as="geometry"/>
                    </mxCell>
                </UserObject>
                <mxCell id="247" style="edgeStyle=none;html=1;exitX=0;exitY=0.5;exitDx=0;exitDy=0;noEdgeStyle=1;orthogonal=1;entryX=1;entryY=0.5;entryDx=0;entryDy=0;" parent="1" source="212" target="246" edge="1">
                    <mxGeometry relative="1" as="geometry">
                        <mxPoint x="-42" y="643" as="sourcePoint"/>
                        <mxPoint x="-162" y="300" as="targetPoint"/>
                    </mxGeometry>
                </mxCell>
                <UserObject label="getParameters.c" tooltip="contains getParameters function" id="254">
                    <mxCell style="rounded=0;whiteSpace=wrap;html=1;" parent="1" vertex="1">
                        <mxGeometry x="-202" y="113" width="100" height="20" as="geometry"/>
                    </mxCell>
                </UserObject>
                <mxCell id="255" value="" style="shape=flexArrow;endArrow=classic;html=1;exitX=0.5;exitY=1;exitDx=0;exitDy=0;fillColor=#60a917;strokeColor=#2D7600;fontStyle=0;noEdgeStyle=1;orthogonal=1;endWidth=5;endSize=4;width=3;entryX=1;entryY=0.5;entryDx=0;entryDy=0;" parent="1" source="73" target="254" edge="1">
                    <mxGeometry width="50" height="50" relative="1" as="geometry">
                        <mxPoint x="-257.0000000000002" y="938.75" as="sourcePoint"/>
                        <mxPoint x="-137" y="1351" as="targetPoint"/>
                        <Array as="points">
                            <mxPoint x="78" y="80"/>
                            <mxPoint x="78" y="123"/>
                        </Array>
                    </mxGeometry>
                </mxCell>
                <mxCell id="257" style="edgeStyle=none;html=1;entryX=1;entryY=0.5;entryDx=0;entryDy=0;exitX=0;exitY=0.5;exitDx=0;exitDy=0;noEdgeStyle=1;orthogonal=1;" parent="1" source="254" target="256" edge="1">
                    <mxGeometry relative="1" as="geometry">
                        <mxPoint x="88" y="-322" as="sourcePoint"/>
                        <mxPoint x="178.0000000000009" y="-61" as="targetPoint"/>
                    </mxGeometry>
                </mxCell>
                <mxCell id="259" value="paramsFilename" style="shape=display;whiteSpace=wrap;html=1;size=0.07874015748031496;movable=1;resizable=1;rotatable=1;deletable=1;editable=1;connectable=1;" parent="1" vertex="1">
                    <mxGeometry x="-861" y="60" width="111" height="20" as="geometry"/>
                </mxCell>
                <mxCell id="263" value="filamentFilename" style="shape=display;whiteSpace=wrap;html=1;size=0.19166666666666668;" parent="1" vertex="1">
                    <mxGeometry x="-937.75" y="523" width="120.5" height="20" as="geometry"/>
                </mxCell>
                <mxCell id="310" style="edgeStyle=none;html=1;exitX=0;exitY=0;exitDx=18.01666666666667;exitDy=20;exitPerimeter=0;entryX=0;entryY=0;entryDx=130;entryDy=22;entryPerimeter=0;strokeColor=#B266FF;strokeWidth=2;" parent="1" source="264" target="306" edge="1">
                    <mxGeometry relative="1" as="geometry">
                        <Array as="points">
                            <mxPoint x="-940" y="590"/>
                        </Array>
                    </mxGeometry>
                </mxCell>
                <mxCell id="264" value="iSiteFilename" style="shape=display;whiteSpace=wrap;html=1;size=0.19166666666666668;" parent="1" vertex="1">
                    <mxGeometry x="-937.75" y="557" width="94" height="20" as="geometry"/>
                </mxCell>
                <mxCell id="265" style="edgeStyle=none;html=1;entryX=0;entryY=0.5;entryDx=0;entryDy=0;exitX=0;exitY=0;exitDx=130;exitDy=22;noEdgeStyle=1;orthogonal=1;exitPerimeter=0;entryPerimeter=0;" parent="1" source="262" target="263" edge="1">
                    <mxGeometry relative="1" as="geometry">
                        <mxPoint x="1480.5" y="487" as="sourcePoint"/>
                        <mxPoint x="1558.0000000000002" y="488" as="targetPoint"/>
                        <Array as="points">
                            <mxPoint x="-950" y="470"/>
                            <mxPoint x="-950" y="533"/>
                        </Array>
                    </mxGeometry>
                </mxCell>
                <UserObject label="filaments.txt" tooltip="contains list of filament sizes (number of entries is number of filaments)&#10;&#10;" id="266">
                    <mxCell style="shape=note;whiteSpace=wrap;html=1;backgroundOutline=1;darkOpacity=0.05;size=16;labelPosition=center;verticalLabelPosition=middle;align=center;verticalAlign=middle;" parent="1" vertex="1">
                        <mxGeometry x="-1098" y="521" width="130" height="24" as="geometry"/>
                    </mxCell>
                </UserObject>
                <mxCell id="271" style="edgeStyle=none;html=1;noEdgeStyle=1;orthogonal=1;movable=1;resizable=1;rotatable=1;deletable=1;editable=1;connectable=1;fillColor=#D98DF7;strokeColor=#B266FF;strokeWidth=2;entryX=1;entryY=0.5;entryDx=0;entryDy=0;exitX=0;exitY=0.5;exitDx=0;exitDy=0;exitPerimeter=0;" parent="1" source="259" target="48" edge="1">
                    <mxGeometry relative="1" as="geometry">
                        <mxPoint x="-870" y="70" as="sourcePoint"/>
                        <mxPoint x="230" y="-922" as="targetPoint"/>
                    </mxGeometry>
                </mxCell>
                <mxCell id="311" style="edgeStyle=none;html=1;exitX=0;exitY=0;exitDx=23.095833333333335;exitDy=20;exitPerimeter=0;entryX=0;entryY=0;entryDx=130;entryDy=22;entryPerimeter=0;strokeColor=#B266FF;strokeWidth=2;" parent="1" source="272" target="307" edge="1">
                    <mxGeometry relative="1" as="geometry">
                        <Array as="points">
                            <mxPoint x="-940" y="620"/>
                        </Array>
                    </mxGeometry>
                </mxCell>
                <mxCell id="272" value="bSiteFilename" style="shape=display;whiteSpace=wrap;html=1;size=0.19166666666666668;" parent="1" vertex="1">
                    <mxGeometry x="-937.75" y="590" width="120.5" height="20" as="geometry"/>
                </mxCell>
                <mxCell id="309" style="edgeStyle=none;html=1;entryX=0;entryY=0;entryDx=130;entryDy=22;entryPerimeter=0;strokeColor=#B266FF;strokeWidth=2;exitX=0;exitY=0;exitDx=26.833333333333336;exitDy=20;exitPerimeter=0;" parent="1" source="273" target="308" edge="1">
                    <mxGeometry relative="1" as="geometry">
                        <Array as="points">
                            <mxPoint x="-930" y="660"/>
                        </Array>
                    </mxGeometry>
                </mxCell>
                <mxCell id="273" value="basicSiteFilename" style="shape=display;whiteSpace=wrap;html=1;size=0.19166666666666668;" parent="1" vertex="1">
                    <mxGeometry x="-937.75" y="624" width="140" height="20" as="geometry"/>
                </mxCell>
                <UserObject label="StiffenRange" tooltip="Range of segments that are locally stiffened" id="275">
                    <mxCell style="shape=display;whiteSpace=wrap;html=1;size=0.19166666666666668;" parent="1" vertex="1">
                        <mxGeometry x="-937.75" y="658" width="86" height="20" as="geometry"/>
                    </mxCell>
                </UserObject>
                <mxCell id="428" style="edgeStyle=none;html=1;exitX=0;exitY=0.5;exitDx=0;exitDy=0;exitPerimeter=0;strokeColor=#B266FF;strokeWidth=2;entryX=1;entryY=0.5;entryDx=0;entryDy=0;movable=1;resizable=1;rotatable=1;deletable=1;editable=1;connectable=1;" parent="1" source="277" target="60" edge="1">
                    <mxGeometry relative="1" as="geometry">
                        <mxPoint x="-730" y="229" as="targetPoint"/>
                    </mxGeometry>
                </mxCell>
                <UserObject label="Ntemp" tooltip="number of rods in each filament (filament length)&#10;overriden if there is an argv[5]" id="277">
                    <mxCell style="shape=display;whiteSpace=wrap;html=1;size=0.19166666666666668;movable=1;resizable=1;rotatable=1;deletable=1;editable=1;connectable=1;" parent="1" vertex="1">
                        <mxGeometry x="-861" y="220" width="50" height="20" as="geometry"/>
                    </mxCell>
                </UserObject>
                <UserObject label="filamentInputMethod" tooltip="Method used in getFilaments to decide on filament number and length&#10;                                    0 - use identical filaments, number and length set from parameters.txt file or command line argument&#10;1 - use command line input, set filaments in driveMet" id="278">
                    <mxCell style="shape=display;whiteSpace=wrap;html=1;size=0.19166666666666668;" parent="1" vertex="1">
                        <mxGeometry x="-937.75" y="725" width="140" height="20" as="geometry"/>
                    </mxCell>
                </UserObject>
                <mxCell id="280" style="edgeStyle=none;html=1;entryX=1;entryY=0.5;entryDx=0;entryDy=0;exitX=0;exitY=0;exitDx=130;exitDy=22;noEdgeStyle=1;orthogonal=1;exitPerimeter=0;entryPerimeter=0;" parent="1" source="262" target="217" edge="1">
                    <mxGeometry relative="1" as="geometry">
                        <mxPoint x="1500" y="176.9999999999999" as="sourcePoint"/>
                        <mxPoint x="1570" y="145" as="targetPoint"/>
                        <Array as="points">
                            <mxPoint x="-690" y="470"/>
                            <mxPoint x="-690" y="190"/>
                        </Array>
                    </mxGeometry>
                </mxCell>
                <mxCell id="282" style="edgeStyle=none;html=1;entryX=1;entryY=0.5;entryDx=0;entryDy=0;exitX=0;exitY=0;exitDx=130;exitDy=22;noEdgeStyle=1;orthogonal=1;exitPerimeter=0;entryPerimeter=0;" parent="1" source="262" target="221" edge="1">
                    <mxGeometry relative="1" as="geometry">
                        <mxPoint x="1435" y="193" as="sourcePoint"/>
                        <mxPoint x="1110" y="683" as="targetPoint"/>
                        <Array as="points">
                            <mxPoint x="-690" y="470"/>
                            <mxPoint x="-690" y="312"/>
                        </Array>
                    </mxGeometry>
                </mxCell>
                <mxCell id="283" style="edgeStyle=none;html=1;entryX=0;entryY=0.5;entryDx=0;entryDy=0;exitX=0;exitY=0;exitDx=130;exitDy=22;noEdgeStyle=1;orthogonal=1;exitPerimeter=0;entryPerimeter=0;" parent="1" source="262" target="228" edge="1">
                    <mxGeometry relative="1" as="geometry">
                        <mxPoint x="1435" y="193" as="sourcePoint"/>
                        <mxPoint x="737" y="643" as="targetPoint"/>
                        <Array as="points">
                            <mxPoint x="-950" y="470"/>
                            <mxPoint x="-950" y="870"/>
                        </Array>
                    </mxGeometry>
                </mxCell>
                <mxCell id="284" style="edgeStyle=none;html=1;entryX=0;entryY=0.5;entryDx=0;entryDy=0;exitX=0;exitY=0;exitDx=130;exitDy=22;noEdgeStyle=1;orthogonal=1;exitPerimeter=0;entryPerimeter=0;" parent="1" source="262" target="230" edge="1">
                    <mxGeometry relative="1" as="geometry">
                        <mxPoint x="1445" y="203" as="sourcePoint"/>
                        <mxPoint x="747" y="653" as="targetPoint"/>
                        <Array as="points">
                            <mxPoint x="-950" y="470"/>
                            <mxPoint x="-950" y="904"/>
                        </Array>
                    </mxGeometry>
                </mxCell>
                <UserObject label="kBound" tooltip="bound ligand spring constant&#9;" id="286">
                    <mxCell style="shape=display;whiteSpace=wrap;html=1;size=0.19166666666666668;" parent="1" vertex="1">
                        <mxGeometry x="-937.75" y="1164" width="60" height="20" as="geometry"/>
                    </mxCell>
                </UserObject>
                <mxCell id="287" style="edgeStyle=none;html=1;exitX=0;exitY=0;exitDx=130;exitDy=22;noEdgeStyle=1;orthogonal=1;exitPerimeter=0;entryX=0;entryY=0.5;entryDx=0;entryDy=0;entryPerimeter=0;" parent="1" source="262" target="231" edge="1">
                    <mxGeometry relative="1" as="geometry">
                        <mxPoint x="1435" y="193" as="sourcePoint"/>
                        <mxPoint x="718" y="972.9999999999998" as="targetPoint"/>
                        <Array as="points">
                            <mxPoint x="-950" y="470"/>
                            <mxPoint x="-950" y="938"/>
                        </Array>
                    </mxGeometry>
                </mxCell>
                <mxCell id="288" style="edgeStyle=none;html=1;exitX=0;exitY=0;exitDx=130;exitDy=22;noEdgeStyle=1;orthogonal=1;exitPerimeter=0;entryX=1;entryY=0.5;entryDx=0;entryDy=0;entryPerimeter=0;" parent="1" source="262" target="232" edge="1">
                    <mxGeometry relative="1" as="geometry">
                        <mxPoint x="1445" y="203" as="sourcePoint"/>
                        <mxPoint x="728" y="982.9999999999998" as="targetPoint"/>
                        <Array as="points">
                            <mxPoint x="-690" y="470"/>
                            <mxPoint x="-690" y="350"/>
                        </Array>
                    </mxGeometry>
                </mxCell>
                <mxCell id="289" style="edgeStyle=none;html=1;exitX=0;exitY=0;exitDx=130;exitDy=22;noEdgeStyle=1;orthogonal=1;exitPerimeter=0;entryX=1;entryY=0.5;entryDx=0;entryDy=0;entryPerimeter=0;" parent="1" source="262" target="233" edge="1">
                    <mxGeometry relative="1" as="geometry">
                        <mxPoint x="1455" y="213" as="sourcePoint"/>
                        <mxPoint x="738" y="992.9999999999998" as="targetPoint"/>
                        <Array as="points">
                            <mxPoint x="-690" y="470"/>
                            <mxPoint x="-690" y="389"/>
                        </Array>
                    </mxGeometry>
                </mxCell>
                <mxCell id="290" style="edgeStyle=none;html=1;exitX=0;exitY=0;exitDx=130;exitDy=22;noEdgeStyle=1;orthogonal=1;exitPerimeter=0;entryX=0;entryY=0.5;entryDx=0;entryDy=0;entryPerimeter=0;" parent="1" source="262" target="234" edge="1">
                    <mxGeometry relative="1" as="geometry">
                        <mxPoint x="1465" y="223" as="sourcePoint"/>
                        <mxPoint x="750" y="903" as="targetPoint"/>
                        <Array as="points">
                            <mxPoint x="-950" y="470"/>
                            <mxPoint x="-950" y="972"/>
                        </Array>
                    </mxGeometry>
                </mxCell>
                <UserObject label="iSiteInputMethod" tooltip="Method used in getSites to decide where iSites are located&#10;&#10;0 - iSites initialized for human CD3Zeta-Chain&#10;1 - set identical filament single iSite - use command line input&#10;2 - input iSites from file&#10;3 - use last site as only iSite&#10;4 - use every site as iSite" id="292">
                    <mxCell style="shape=display;whiteSpace=wrap;html=1;size=0.19166666666666668;" parent="1" vertex="1">
                        <mxGeometry x="-937.75" y="759" width="140" height="20" as="geometry"/>
                    </mxCell>
                </UserObject>
                <UserObject label="stiffCase" tooltip="not used anymore" id="293">
                    <mxCell style="shape=display;whiteSpace=wrap;html=1;size=0.19166666666666668;" parent="1" vertex="1">
                        <mxGeometry x="-937.75" y="1198" width="60" height="20" as="geometry"/>
                    </mxCell>
                </UserObject>
                <UserObject label="occupiedSites" tooltip="String to determine which of the 6 CD3Zeta iSites are 'phosphorylated'" id="294">
                    <mxCell style="shape=display;whiteSpace=wrap;html=1;size=0.19166666666666668;" parent="1" vertex="1">
                        <mxGeometry x="-937.75" y="1232" width="140" height="20" as="geometry"/>
                    </mxCell>
                </UserObject>
                <mxCell id="295" style="edgeStyle=none;html=1;exitX=0;exitY=0;exitDx=130;exitDy=22;noEdgeStyle=1;orthogonal=1;exitPerimeter=0;entryX=0;entryY=0.5;entryDx=0;entryDy=0;entryPerimeter=0;" parent="1" source="262" target="236" edge="1">
                    <mxGeometry relative="1" as="geometry">
                        <mxPoint x="1485" y="243" as="sourcePoint"/>
                        <mxPoint x="725.5" y="1002.9999999999998" as="targetPoint"/>
                        <Array as="points">
                            <mxPoint x="-950" y="470"/>
                            <mxPoint x="-950" y="837"/>
                        </Array>
                    </mxGeometry>
                </mxCell>
                <UserObject label="bSiteInputMethod" tooltip="Method used in getSites to decide where bound sites are located&#10;&#10;0 - two bound at same site&#10;1 - do nothing, use command line input&#10;2 - bSites for multiple binding of ZAP-70 to CD3 Zeta mouse&#10;3 - from file&#10;4 - use last site as only bSite" id="296">
                    <mxCell style="shape=display;whiteSpace=wrap;html=1;size=0.19166666666666668;" parent="1" vertex="1">
                        <mxGeometry x="-937.75" y="793" width="140" height="20" as="geometry"/>
                    </mxCell>
                </UserObject>
                <UserObject label="parabolaDepth" tooltip="Depth of basic residue well&#9;" id="297">
                    <mxCell style="shape=display;whiteSpace=wrap;html=1;size=0.19166666666666668;" parent="1" vertex="1">
                        <mxGeometry x="-937.75" y="996" width="140" height="20" as="geometry"/>
                    </mxCell>
                </UserObject>
                <UserObject label="parabolaWidth" tooltip="Width of basic residue well" id="298">
                    <mxCell style="shape=display;whiteSpace=wrap;html=1;size=0.19166666666666668;" parent="1" vertex="1">
                        <mxGeometry x="-937.75" y="1029" width="140" height="20" as="geometry"/>
                    </mxCell>
                </UserObject>
                <UserObject label="wallParabolaK" tooltip="Width of membrane barrier for regular residues&#9;" id="299">
                    <mxCell style="shape=display;whiteSpace=wrap;html=1;size=0.19166666666666668;" parent="1" vertex="1">
                        <mxGeometry x="-937.75" y="1063" width="97" height="20" as="geometry"/>
                    </mxCell>
                </UserObject>
                <UserObject label="Erepulsion" tooltip="Strength of phosphorylated residue potential" id="300">
                    <mxCell style="shape=display;whiteSpace=wrap;html=1;size=0.19166666666666668;" parent="1" vertex="1">
                        <mxGeometry x="-937.75" y="1131" width="74" height="20" as="geometry"/>
                    </mxCell>
                </UserObject>
                <UserObject label="Zrepulsion" tooltip="Width of phosphorylated residue potential" id="301">
                    <mxCell style="shape=display;whiteSpace=wrap;html=1;size=0.19166666666666668;" parent="1" vertex="1">
                        <mxGeometry x="-937.75" y="1097" width="70" height="20" as="geometry"/>
                    </mxCell>
                </UserObject>
                <mxCell id="429" style="edgeStyle=none;html=1;exitX=0;exitY=0.5;exitDx=0;exitDy=0;exitPerimeter=0;entryX=1;entryY=0.5;entryDx=0;entryDy=0;strokeColor=#B266FF;strokeWidth=2;movable=1;resizable=1;rotatable=1;deletable=1;editable=1;connectable=1;" parent="1" source="302" target="63" edge="1">
                    <mxGeometry relative="1" as="geometry"/>
                </mxCell>
                <UserObject label="iSiteTemp" tooltip="location of the iSite                        overriden if there is an argv[6]&#9;&#10;        " id="302">
                    <mxCell style="shape=display;whiteSpace=wrap;html=1;size=0.19166666666666668;movable=1;resizable=1;rotatable=1;deletable=1;editable=1;connectable=1;" parent="1" vertex="1">
                        <mxGeometry x="-861" y="260" width="70" height="20" as="geometry"/>
                    </mxCell>
                </UserObject>
                <mxCell id="303" style="edgeStyle=none;html=1;exitX=0;exitY=0;exitDx=130;exitDy=22;noEdgeStyle=1;orthogonal=1;exitPerimeter=0;entryX=0;entryY=0.5;entryDx=0;entryDy=0;entryPerimeter=0;" parent="1" source="262" target="237" edge="1">
                    <mxGeometry relative="1" as="geometry">
                        <mxPoint x="1485" y="243" as="sourcePoint"/>
                        <mxPoint x="725.5" y="1002.9999999999998" as="targetPoint"/>
                        <Array as="points">
                            <mxPoint x="-950" y="470"/>
                            <mxPoint x="-950" y="499"/>
                        </Array>
                    </mxGeometry>
                </mxCell>
                <UserObject label="PhosElectroRange" tooltip="Range of amino acids affected by phosphorylation potential" id="304">
                    <mxCell style="shape=display;whiteSpace=wrap;html=1;size=0.19166666666666668;" parent="1" vertex="1">
                        <mxGeometry x="-937.75" y="692" width="131" height="20" as="geometry"/>
                    </mxCell>
                </UserObject>
                <mxCell id="305" style="edgeStyle=none;html=1;noEdgeStyle=1;orthogonal=1;movable=1;resizable=1;rotatable=1;deletable=1;editable=1;connectable=1;fillColor=#D98DF7;strokeColor=#B266FF;strokeWidth=2;entryX=0;entryY=0;entryDx=130;entryDy=22;entryPerimeter=0;exitX=0;exitY=0;exitDx=23.095833333333335;exitDy=20;exitPerimeter=0;" parent="1" source="263" target="266" edge="1">
                    <mxGeometry relative="1" as="geometry">
                        <mxPoint x="-910" y="570" as="sourcePoint"/>
                        <mxPoint x="-730" y="570" as="targetPoint"/>
                        <Array as="points">
                            <mxPoint x="-940" y="560"/>
                        </Array>
                    </mxGeometry>
                </mxCell>
                <UserObject label="iSites.txt" tooltip="contains list of iSite locations (number of entries is number of iSites; number of lines is number of filaments)&#10;&#10;" id="306">
                    <mxCell style="shape=note;whiteSpace=wrap;html=1;backgroundOutline=1;darkOpacity=0.05;size=16;labelPosition=center;verticalLabelPosition=middle;align=center;verticalAlign=middle;" parent="1" vertex="1">
                        <mxGeometry x="-1098" y="555" width="130" height="24" as="geometry"/>
                    </mxCell>
                </UserObject>
                <UserObject label="bSites.txt" tooltip="contains list of bSite locations (number of entries is number of bSites; number of lines is number of filaments)&#10;&#10;" id="307">
                    <mxCell style="shape=note;whiteSpace=wrap;html=1;backgroundOutline=1;darkOpacity=0.05;size=15;labelPosition=center;verticalLabelPosition=middle;align=center;verticalAlign=middle;" parent="1" vertex="1">
                        <mxGeometry x="-1098" y="588" width="130" height="24" as="geometry"/>
                    </mxCell>
                </UserObject>
                <UserObject label="basicSites.txt" tooltip="contains list of BasicSite locations (number of entries is number of BasicSites; number of lines is number of filaments)&#10;&#10;" id="308">
                    <mxCell style="shape=note;whiteSpace=wrap;html=1;backgroundOutline=1;darkOpacity=0.05;size=16;labelPosition=center;verticalLabelPosition=middle;align=center;verticalAlign=middle;" parent="1" vertex="1">
                        <mxGeometry x="-1098" y="622" width="130" height="24" as="geometry"/>
                    </mxCell>
                </UserObject>
                <mxCell id="315" style="edgeStyle=none;html=1;exitX=0;exitY=0;exitDx=130;exitDy=22;noEdgeStyle=1;orthogonal=1;exitPerimeter=0;entryX=0;entryY=0.5;entryDx=0;entryDy=0;entryPerimeter=0;" parent="1" source="262" target="264" edge="1">
                    <mxGeometry relative="1" as="geometry">
                        <mxPoint x="1510" y="186.9999999999999" as="sourcePoint"/>
                        <mxPoint x="-885" y="520" as="targetPoint"/>
                        <Array as="points">
                            <mxPoint x="-950" y="470"/>
                            <mxPoint x="-950" y="567"/>
                        </Array>
                    </mxGeometry>
                </mxCell>
                <mxCell id="317" style="edgeStyle=none;html=1;entryX=0;entryY=0.5;entryDx=0;entryDy=0;exitX=0;exitY=0;exitDx=130;exitDy=22;noEdgeStyle=1;orthogonal=1;exitPerimeter=0;entryPerimeter=0;" parent="1" source="262" target="272" edge="1">
                    <mxGeometry relative="1" as="geometry">
                        <mxPoint x="1500" y="177" as="sourcePoint"/>
                        <mxPoint x="1570" y="183" as="targetPoint"/>
                        <Array as="points">
                            <mxPoint x="-950" y="470"/>
                            <mxPoint x="-950" y="600"/>
                        </Array>
                    </mxGeometry>
                </mxCell>
                <mxCell id="318" style="edgeStyle=none;html=1;entryX=0;entryY=0.5;entryDx=0;entryDy=0;exitX=0;exitY=0;exitDx=130;exitDy=22;noEdgeStyle=1;orthogonal=1;exitPerimeter=0;entryPerimeter=0;" parent="1" source="262" target="273" edge="1">
                    <mxGeometry relative="1" as="geometry">
                        <mxPoint x="1510" y="187" as="sourcePoint"/>
                        <mxPoint x="1580" y="193" as="targetPoint"/>
                        <Array as="points">
                            <mxPoint x="-950" y="470"/>
                            <mxPoint x="-950" y="634"/>
                        </Array>
                    </mxGeometry>
                </mxCell>
                <mxCell id="319" style="edgeStyle=none;html=1;entryX=0;entryY=0.5;entryDx=0;entryDy=0;exitX=0;exitY=0;exitDx=130;exitDy=22;noEdgeStyle=1;orthogonal=1;exitPerimeter=0;entryPerimeter=0;" parent="1" source="262" target="275" edge="1">
                    <mxGeometry relative="1" as="geometry">
                        <mxPoint x="1520" y="197" as="sourcePoint"/>
                        <mxPoint x="1590" y="203" as="targetPoint"/>
                        <Array as="points">
                            <mxPoint x="-950" y="470"/>
                            <mxPoint x="-950" y="668"/>
                        </Array>
                    </mxGeometry>
                </mxCell>
                <mxCell id="321" style="edgeStyle=none;html=1;entryX=1;entryY=0.5;entryDx=0;entryDy=0;exitX=0;exitY=0;exitDx=130;exitDy=22;noEdgeStyle=1;orthogonal=1;exitPerimeter=0;entryPerimeter=0;" parent="1" source="262" target="277" edge="1">
                    <mxGeometry relative="1" as="geometry">
                        <mxPoint x="1530" y="207" as="sourcePoint"/>
                        <mxPoint x="1600" y="213" as="targetPoint"/>
                        <Array as="points">
                            <mxPoint x="-690" y="470"/>
                            <mxPoint x="-690" y="230"/>
                        </Array>
                    </mxGeometry>
                </mxCell>
                <mxCell id="322" style="edgeStyle=none;html=1;exitX=0;exitY=0;exitDx=130;exitDy=22;noEdgeStyle=1;orthogonal=1;exitPerimeter=0;entryX=0;entryY=0.5;entryDx=0;entryDy=0;entryPerimeter=0;" parent="1" source="262" target="278" edge="1">
                    <mxGeometry relative="1" as="geometry">
                        <mxPoint x="1540" y="217" as="sourcePoint"/>
                        <mxPoint x="-790" y="717" as="targetPoint"/>
                        <Array as="points">
                            <mxPoint x="-950" y="470"/>
                            <mxPoint x="-950" y="735"/>
                        </Array>
                    </mxGeometry>
                </mxCell>
                <mxCell id="323" style="edgeStyle=none;html=1;entryX=0;entryY=0.5;entryDx=0;entryDy=0;exitX=0;exitY=0;exitDx=130;exitDy=22;noEdgeStyle=1;orthogonal=1;exitPerimeter=0;entryPerimeter=0;" parent="1" source="262" target="286" edge="1">
                    <mxGeometry relative="1" as="geometry">
                        <mxPoint x="1550" y="227" as="sourcePoint"/>
                        <mxPoint x="1620" y="233" as="targetPoint"/>
                        <Array as="points">
                            <mxPoint x="-950" y="470"/>
                            <mxPoint x="-950" y="1174"/>
                        </Array>
                    </mxGeometry>
                </mxCell>
                <mxCell id="324" style="edgeStyle=none;html=1;noEdgeStyle=1;orthogonal=1;entryX=1;entryY=0.5;entryDx=0;entryDy=0;entryPerimeter=0;exitX=0;exitY=0;exitDx=130;exitDy=22;exitPerimeter=0;" parent="1" source="262" target="302" edge="1">
                    <mxGeometry relative="1" as="geometry">
                        <mxPoint x="1430" y="283" as="sourcePoint"/>
                        <mxPoint x="1530" y="711" as="targetPoint"/>
                        <Array as="points">
                            <mxPoint x="-690" y="470"/>
                            <mxPoint x="-690" y="270"/>
                        </Array>
                    </mxGeometry>
                </mxCell>
                <mxCell id="325" style="edgeStyle=none;html=1;noEdgeStyle=1;orthogonal=1;entryX=0;entryY=0.5;entryDx=0;entryDy=0;entryPerimeter=0;exitX=0;exitY=0;exitDx=130;exitDy=22;exitPerimeter=0;" parent="1" source="262" target="292" edge="1">
                    <mxGeometry relative="1" as="geometry">
                        <mxPoint x="1440" y="293" as="sourcePoint"/>
                        <mxPoint x="1460" y="363" as="targetPoint"/>
                        <Array as="points">
                            <mxPoint x="-950" y="470"/>
                            <mxPoint x="-950" y="769"/>
                        </Array>
                    </mxGeometry>
                </mxCell>
                <mxCell id="326" style="edgeStyle=none;html=1;noEdgeStyle=1;orthogonal=1;entryX=0;entryY=0.5;entryDx=0;entryDy=0;entryPerimeter=0;exitX=0;exitY=0;exitDx=130;exitDy=22;exitPerimeter=0;" parent="1" source="262" target="293" edge="1">
                    <mxGeometry relative="1" as="geometry">
                        <mxPoint x="1450" y="303" as="sourcePoint"/>
                        <mxPoint x="1470" y="373" as="targetPoint"/>
                        <Array as="points">
                            <mxPoint x="-950" y="470"/>
                            <mxPoint x="-950" y="1210"/>
                        </Array>
                    </mxGeometry>
                </mxCell>
                <mxCell id="327" style="edgeStyle=none;html=1;noEdgeStyle=1;orthogonal=1;entryX=0;entryY=0.5;entryDx=0;entryDy=0;entryPerimeter=0;exitX=0;exitY=0;exitDx=130;exitDy=22;exitPerimeter=0;" parent="1" source="262" target="294" edge="1">
                    <mxGeometry relative="1" as="geometry">
                        <mxPoint x="1470" y="213" as="sourcePoint"/>
                        <mxPoint x="1480" y="383" as="targetPoint"/>
                        <Array as="points">
                            <mxPoint x="-950" y="470"/>
                            <mxPoint x="-950" y="1242"/>
                        </Array>
                    </mxGeometry>
                </mxCell>
                <mxCell id="328" style="edgeStyle=none;html=1;noEdgeStyle=1;orthogonal=1;entryX=0;entryY=0.5;entryDx=0;entryDy=0;entryPerimeter=0;exitX=0;exitY=0;exitDx=130;exitDy=22;exitPerimeter=0;" parent="1" source="262" target="296" edge="1">
                    <mxGeometry relative="1" as="geometry">
                        <mxPoint x="1470" y="323" as="sourcePoint"/>
                        <mxPoint x="1490" y="393" as="targetPoint"/>
                        <Array as="points">
                            <mxPoint x="-950" y="470"/>
                            <mxPoint x="-950" y="803"/>
                        </Array>
                    </mxGeometry>
                </mxCell>
                <mxCell id="329" style="edgeStyle=none;html=1;noEdgeStyle=1;orthogonal=1;entryX=0;entryY=0.5;entryDx=0;entryDy=0;entryPerimeter=0;exitX=0;exitY=0;exitDx=130;exitDy=22;exitPerimeter=0;" parent="1" source="262" target="297" edge="1">
                    <mxGeometry relative="1" as="geometry">
                        <mxPoint x="1480" y="333" as="sourcePoint"/>
                        <mxPoint x="1500" y="403" as="targetPoint"/>
                        <Array as="points">
                            <mxPoint x="-950" y="470"/>
                            <mxPoint x="-950" y="1006"/>
                        </Array>
                    </mxGeometry>
                </mxCell>
                <mxCell id="330" style="edgeStyle=none;html=1;noEdgeStyle=1;orthogonal=1;entryX=0;entryY=0.5;entryDx=0;entryDy=0;entryPerimeter=0;exitX=0;exitY=0;exitDx=130;exitDy=22;exitPerimeter=0;" parent="1" source="262" target="298" edge="1">
                    <mxGeometry relative="1" as="geometry">
                        <mxPoint x="1490" y="343" as="sourcePoint"/>
                        <mxPoint x="1510" y="413" as="targetPoint"/>
                        <Array as="points">
                            <mxPoint x="-950" y="470"/>
                            <mxPoint x="-950" y="1039"/>
                        </Array>
                    </mxGeometry>
                </mxCell>
                <mxCell id="331" style="edgeStyle=none;html=1;noEdgeStyle=1;orthogonal=1;entryX=0;entryY=0.5;entryDx=0;entryDy=0;entryPerimeter=0;exitX=0;exitY=0;exitDx=130;exitDy=22;exitPerimeter=0;" parent="1" source="262" target="299" edge="1">
                    <mxGeometry relative="1" as="geometry">
                        <mxPoint x="1500" y="353" as="sourcePoint"/>
                        <mxPoint x="1520" y="423" as="targetPoint"/>
                        <Array as="points">
                            <mxPoint x="-950" y="470"/>
                            <mxPoint x="-950" y="1073"/>
                        </Array>
                    </mxGeometry>
                </mxCell>
                <mxCell id="332" style="edgeStyle=none;html=1;noEdgeStyle=1;orthogonal=1;entryX=0;entryY=0.5;entryDx=0;entryDy=0;entryPerimeter=0;exitX=0;exitY=0;exitDx=130;exitDy=22;exitPerimeter=0;" parent="1" source="262" target="300" edge="1">
                    <mxGeometry relative="1" as="geometry">
                        <mxPoint x="1590" y="1073" as="sourcePoint"/>
                        <mxPoint x="1530" y="433" as="targetPoint"/>
                        <Array as="points">
                            <mxPoint x="-950" y="470"/>
                            <mxPoint x="-950" y="1141"/>
                        </Array>
                    </mxGeometry>
                </mxCell>
                <mxCell id="333" style="edgeStyle=none;html=1;noEdgeStyle=1;orthogonal=1;entryX=0;entryY=0.5;entryDx=0;entryDy=0;entryPerimeter=0;exitX=0;exitY=0;exitDx=130;exitDy=22;exitPerimeter=0;" parent="1" source="262" target="301" edge="1">
                    <mxGeometry relative="1" as="geometry">
                        <mxPoint x="1520" y="373" as="sourcePoint"/>
                        <mxPoint x="1540" y="733" as="targetPoint"/>
                        <Array as="points">
                            <mxPoint x="-950" y="470"/>
                            <mxPoint x="-950" y="1107"/>
                        </Array>
                    </mxGeometry>
                </mxCell>
                <mxCell id="334" style="edgeStyle=none;html=1;noEdgeStyle=1;orthogonal=1;entryX=0;entryY=0.5;entryDx=0;entryDy=0;entryPerimeter=0;exitX=0;exitY=0;exitDx=130;exitDy=22;exitPerimeter=0;" parent="1" source="262" target="304" edge="1">
                    <mxGeometry relative="1" as="geometry">
                        <mxPoint x="1440" y="293" as="sourcePoint"/>
                        <mxPoint x="1570" y="863" as="targetPoint"/>
                        <Array as="points">
                            <mxPoint x="-950" y="470"/>
                            <mxPoint x="-950" y="702"/>
                        </Array>
                    </mxGeometry>
                </mxCell>
                <UserObject label="getSites.c" tooltip="contains getSites function" id="336">
                    <mxCell style="rounded=0;whiteSpace=wrap;html=1;" parent="1" vertex="1">
                        <mxGeometry x="-202" y="458" width="100" height="20" as="geometry"/>
                    </mxCell>
                </UserObject>
                <mxCell id="337" value="" style="shape=flexArrow;endArrow=classic;html=1;exitX=0.5;exitY=1;exitDx=0;exitDy=0;fillColor=#60a917;strokeColor=#2D7600;fontStyle=0;noEdgeStyle=1;orthogonal=1;endWidth=5;endSize=4;width=3;entryX=1;entryY=0.5;entryDx=0;entryDy=0;" parent="1" source="73" target="336" edge="1">
                    <mxGeometry width="50" height="50" relative="1" as="geometry">
                        <mxPoint x="81" y="31" as="sourcePoint"/>
                        <mxPoint x="-59" y="429" as="targetPoint"/>
                        <Array as="points">
                            <mxPoint x="78" y="468"/>
                        </Array>
                    </mxGeometry>
                </mxCell>
                <UserObject label="getSites" tooltip="creates number and location of iSites based on case; creates number and location of bSites based on case&#10;" id="338">
                    <mxCell style="ellipse;whiteSpace=wrap;html=1;" parent="1" vertex="1">
                        <mxGeometry x="-507" y="464" width="120" height="22" as="geometry"/>
                    </mxCell>
                </UserObject>
                <mxCell id="339" style="edgeStyle=none;html=1;exitX=0;exitY=0.5;exitDx=0;exitDy=0;noEdgeStyle=1;orthogonal=1;entryX=1;entryY=0.5;entryDx=0;entryDy=0;" parent="1" source="336" target="338" edge="1">
                    <mxGeometry relative="1" as="geometry">
                        <mxPoint x="-57" y="1115.25" as="sourcePoint"/>
                        <mxPoint x="-202" y="370" as="targetPoint"/>
                    </mxGeometry>
                </mxCell>
                <UserObject label="initializeStiffSites.c" tooltip="contains initializeStiffSites function" id="345">
                    <mxCell style="rounded=0;whiteSpace=wrap;html=1;" parent="1" vertex="1">
                        <mxGeometry x="-212" y="539" width="120" height="20" as="geometry"/>
                    </mxCell>
                </UserObject>
                <mxCell id="346" value="" style="shape=flexArrow;endArrow=classic;html=1;exitX=0.5;exitY=1;exitDx=0;exitDy=0;fillColor=#60a917;strokeColor=#2D7600;fontStyle=0;noEdgeStyle=1;orthogonal=1;endWidth=5;endSize=4;width=3;entryX=1;entryY=0.5;entryDx=0;entryDy=0;" parent="1" source="73" target="345" edge="1">
                    <mxGeometry width="50" height="50" relative="1" as="geometry">
                        <mxPoint x="-222" y="463" as="sourcePoint"/>
                        <mxPoint x="-92" y="1304" as="targetPoint"/>
                        <Array as="points">
                            <mxPoint x="78" y="549"/>
                        </Array>
                    </mxGeometry>
                </mxCell>
                <UserObject label="initializeStiffSites" tooltip="initializes all residues to not stiff then assigns stiff sites based on variable defined in parameters.txt&#10;" id="347">
                    <mxCell style="ellipse;whiteSpace=wrap;html=1;" parent="1" vertex="1">
                        <mxGeometry x="-507" y="539" width="120" height="22" as="geometry"/>
                    </mxCell>
                </UserObject>
                <mxCell id="348" style="edgeStyle=none;html=1;entryX=1;entryY=0.5;entryDx=0;entryDy=0;exitX=0;exitY=0.5;exitDx=0;exitDy=0;noEdgeStyle=1;orthogonal=1;" parent="1" source="345" target="347" edge="1">
                    <mxGeometry relative="1" as="geometry">
                        <mxPoint x="-24" y="558" as="sourcePoint"/>
                        <mxPoint x="66.00000000000091" y="477" as="targetPoint"/>
                    </mxGeometry>
                </mxCell>
                <UserObject label="initializePhosphorylatedSites.c" tooltip="contains initializePhosphorylatedSites function" id="351">
                    <mxCell style="rounded=0;whiteSpace=wrap;html=1;" parent="1" vertex="1">
                        <mxGeometry x="-237" y="614" width="170" height="20" as="geometry"/>
                    </mxCell>
                </UserObject>
                <mxCell id="352" value="" style="shape=flexArrow;endArrow=classic;html=1;exitX=0.5;exitY=1;exitDx=0;exitDy=0;fillColor=#60a917;strokeColor=#2D7600;fontStyle=0;noEdgeStyle=1;orthogonal=1;endWidth=5;endSize=4;width=3;entryX=1;entryY=0.5;entryDx=0;entryDy=0;" parent="1" source="73" target="351" edge="1">
                    <mxGeometry width="50" height="50" relative="1" as="geometry">
                        <mxPoint x="-222" y="453.5" as="sourcePoint"/>
                        <mxPoint x="-92" y="1387" as="targetPoint"/>
                        <Array as="points">
                            <mxPoint x="78" y="624"/>
                        </Array>
                    </mxGeometry>
                </mxCell>
                <UserObject label="initializePhosphorylatedSites" tooltip="initializes all residues to not phosphorylated then assigns phosporylated sites based on variable defined in parameters.txt&#10;&#10;" id="353">
                    <mxCell style="ellipse;whiteSpace=wrap;html=1;" parent="1" vertex="1">
                        <mxGeometry x="-539" y="614" width="190" height="22" as="geometry"/>
                    </mxCell>
                </UserObject>
                <mxCell id="354" style="edgeStyle=none;html=1;noEdgeStyle=1;orthogonal=1;exitX=0;exitY=0.5;exitDx=0;exitDy=0;" parent="1" source="351" edge="1">
                    <mxGeometry relative="1" as="geometry">
                        <mxPoint x="-168" y="601" as="sourcePoint"/>
                        <mxPoint x="-352" y="624" as="targetPoint"/>
                    </mxGeometry>
                </mxCell>
                <UserObject label="getBasicSites.c" tooltip="contains getBasicSites function" id="358">
                    <mxCell style="rounded=0;whiteSpace=wrap;html=1;" parent="1" vertex="1">
                        <mxGeometry x="-212" y="689" width="120" height="20" as="geometry"/>
                    </mxCell>
                </UserObject>
                <UserObject label="getFilaments.c" tooltip="contains getFilaments function" id="359">
                    <mxCell style="rounded=0;whiteSpace=wrap;html=1;" parent="1" vertex="1">
                        <mxGeometry x="-212" y="764" width="120" height="20" as="geometry"/>
                    </mxCell>
                </UserObject>
                <mxCell id="361" value="" style="shape=flexArrow;endArrow=classic;html=1;exitX=0.5;exitY=1;exitDx=0;exitDy=0;fillColor=#60a917;strokeColor=#2D7600;fontStyle=0;noEdgeStyle=1;orthogonal=1;endWidth=5;endSize=4;width=3;entryX=1;entryY=0.5;entryDx=0;entryDy=0;" parent="1" source="73" target="358" edge="1">
                    <mxGeometry width="50" height="50" relative="1" as="geometry">
                        <mxPoint x="-462" y="905.5" as="sourcePoint"/>
                        <mxPoint x="-132" y="1411" as="targetPoint"/>
                        <Array as="points">
                            <mxPoint x="78" y="699"/>
                        </Array>
                    </mxGeometry>
                </mxCell>
                <mxCell id="362" value="" style="shape=flexArrow;endArrow=classic;html=1;fillColor=#60a917;strokeColor=#2D7600;fontStyle=0;noEdgeStyle=1;orthogonal=1;endWidth=5;endSize=4;width=3;entryX=1;entryY=0.5;entryDx=0;entryDy=0;exitX=0.5;exitY=1;exitDx=0;exitDy=0;" parent="1" source="73" target="359" edge="1">
                    <mxGeometry width="50" height="50" relative="1" as="geometry">
                        <mxPoint x="-157" y="50" as="sourcePoint"/>
                        <mxPoint x="-122" y="1421" as="targetPoint"/>
                        <Array as="points">
                            <mxPoint x="78" y="774"/>
                        </Array>
                    </mxGeometry>
                </mxCell>
                <mxCell id="363" value="" style="shape=flexArrow;endArrow=classic;html=1;exitX=0.5;exitY=1;exitDx=0;exitDy=0;fillColor=#60a917;strokeColor=#2D7600;fontStyle=0;noEdgeStyle=1;orthogonal=1;endWidth=5;endSize=4;width=3;entryX=1;entryY=0.5;entryDx=0;entryDy=0;" parent="1" source="73" target="360" edge="1">
                    <mxGeometry width="50" height="50" relative="1" as="geometry">
                        <mxPoint x="-442" y="925.5" as="sourcePoint"/>
                        <mxPoint x="-202" y="1463" as="targetPoint"/>
                        <Array as="points">
                            <mxPoint x="78" y="940"/>
                        </Array>
                    </mxGeometry>
                </mxCell>
                <UserObject label="getBasicSites" tooltip="creates number and location of BasicSites based input file&#10;" id="364">
                    <mxCell style="ellipse;whiteSpace=wrap;html=1;" parent="1" vertex="1">
                        <mxGeometry x="-507" y="689" width="120" height="22" as="geometry"/>
                    </mxCell>
                </UserObject>
                <UserObject label="getFilaments" tooltip="creates number of filaments and length of filaments based on case&#10;" id="365">
                    <mxCell style="ellipse;whiteSpace=wrap;html=1;" parent="1" vertex="1">
                        <mxGeometry x="-507" y="764" width="120" height="22" as="geometry"/>
                    </mxCell>
                </UserObject>
                <mxCell id="366" style="edgeStyle=none;html=1;entryX=1;entryY=0.5;entryDx=0;entryDy=0;noEdgeStyle=1;orthogonal=1;exitX=0;exitY=0.5;exitDx=0;exitDy=0;" parent="1" source="358" target="364" edge="1">
                    <mxGeometry relative="1" as="geometry">
                        <mxPoint x="28.5" y="651" as="sourcePoint"/>
                        <mxPoint x="118.50000000000045" y="650.0000000000002" as="targetPoint"/>
                    </mxGeometry>
                </mxCell>
                <mxCell id="367" style="edgeStyle=none;html=1;entryX=1;entryY=0.5;entryDx=0;entryDy=0;noEdgeStyle=1;orthogonal=1;exitX=0;exitY=0.5;exitDx=0;exitDy=0;" parent="1" source="359" target="365" edge="1">
                    <mxGeometry relative="1" as="geometry">
                        <mxPoint x="38.5" y="661" as="sourcePoint"/>
                        <mxPoint x="128.50000000000045" y="660.0000000000002" as="targetPoint"/>
                    </mxGeometry>
                </mxCell>
                <UserObject label="metropolisJoint" tooltip="runs metropolis algorithm&#10;&#10;" id="374">
                    <mxCell style="ellipse;whiteSpace=wrap;html=1;" parent="1" vertex="1">
                        <mxGeometry x="-502" y="840" width="120" height="22" as="geometry"/>
                    </mxCell>
                </UserObject>
                <UserObject label="stationarity" tooltip="Test for convergence&#10;&#10;" id="375">
                    <mxCell style="ellipse;whiteSpace=wrap;html=1;" parent="1" vertex="1">
                        <mxGeometry x="-502" y="981" width="120" height="22" as="geometry"/>
                    </mxCell>
                </UserObject>
                <UserObject label="appendBins" tooltip="Helper function needed to test for convergence&#10;" id="376">
                    <mxCell style="ellipse;whiteSpace=wrap;html=1;" parent="1" vertex="1">
                        <mxGeometry x="-502" y="1046" width="120" height="22" as="geometry"/>
                    </mxCell>
                </UserObject>
                <mxCell id="378" style="edgeStyle=none;html=1;entryX=1;entryY=0.5;entryDx=0;entryDy=0;noEdgeStyle=1;orthogonal=1;exitX=0;exitY=0.5;exitDx=0;exitDy=0;" parent="1" source="360" target="374" edge="1">
                    <mxGeometry relative="1" as="geometry">
                        <mxPoint x="-735.5" y="1062" as="sourcePoint"/>
                        <mxPoint x="-627.9999999999986" y="1063" as="targetPoint"/>
                    </mxGeometry>
                </mxCell>
                <mxCell id="379" style="edgeStyle=none;html=1;entryX=1;entryY=0.5;entryDx=0;entryDy=0;noEdgeStyle=1;orthogonal=1;exitX=0;exitY=0.5;exitDx=0;exitDy=0;" parent="1" source="360" target="375" edge="1">
                    <mxGeometry relative="1" as="geometry">
                        <mxPoint x="-725.5" y="1072" as="sourcePoint"/>
                        <mxPoint x="-617.9999999999986" y="1073" as="targetPoint"/>
                    </mxGeometry>
                </mxCell>
                <mxCell id="380" style="edgeStyle=none;html=1;entryX=1;entryY=0.5;entryDx=0;entryDy=0;noEdgeStyle=1;orthogonal=1;exitX=0;exitY=0.5;exitDx=0;exitDy=0;" parent="1" source="360" target="376" edge="1">
                    <mxGeometry relative="1" as="geometry">
                        <mxPoint x="-715.5" y="1082" as="sourcePoint"/>
                        <mxPoint x="-607.9999999999986" y="1083" as="targetPoint"/>
                    </mxGeometry>
                </mxCell>
                <mxCell id="381" style="edgeStyle=none;html=1;entryX=1;entryY=0.5;entryDx=0;entryDy=0;noEdgeStyle=1;orthogonal=1;exitX=0;exitY=0.5;exitDx=0;exitDy=0;" parent="1" source="360" target="377" edge="1">
                    <mxGeometry relative="1" as="geometry">
                        <mxPoint x="-705.5" y="1092" as="sourcePoint"/>
                        <mxPoint x="-597.9999999999986" y="1093" as="targetPoint"/>
                    </mxGeometry>
                </mxCell>
                <mxCell id="384" value="" style="shape=flexArrow;endArrow=classic;html=1;fillColor=#60a917;strokeColor=#2D7600;fontStyle=0;noEdgeStyle=1;orthogonal=1;endWidth=5;endSize=4;width=3;entryX=0.5;entryY=0;entryDx=0;entryDy=0;exitX=0.5;exitY=1;exitDx=0;exitDy=0;" parent="1" source="375" target="376" edge="1">
                    <mxGeometry width="50" height="50" relative="1" as="geometry">
                        <mxPoint x="-104.5" y="1552" as="sourcePoint"/>
                        <mxPoint x="-514.5" y="1217" as="targetPoint"/>
                    </mxGeometry>
                </mxCell>
                <mxCell id="385" value="" style="shape=flexArrow;endArrow=classic;html=1;fillColor=#60a917;strokeColor=#2D7600;fontStyle=0;noEdgeStyle=1;orthogonal=1;endWidth=5;endSize=4;width=3;exitX=0.5;exitY=1;exitDx=0;exitDy=0;entryX=0.5;entryY=1;entryDx=0;entryDy=0;" parent="1" source="374" target="347" edge="1">
                    <mxGeometry width="50" height="50" relative="1" as="geometry">
                        <mxPoint x="155.49999999999977" y="1645" as="sourcePoint"/>
                        <mxPoint x="-492" y="580" as="targetPoint"/>
                        <Array as="points">
                            <mxPoint x="-518" y="880"/>
                            <mxPoint x="-622" y="880"/>
                            <mxPoint x="-622" y="600"/>
                        </Array>
                    </mxGeometry>
                </mxCell>
                <mxCell id="386" value="" style="shape=flexArrow;endArrow=classic;html=1;fillColor=#60a917;strokeColor=#2D7600;fontStyle=0;noEdgeStyle=1;orthogonal=1;endWidth=5;endSize=4;width=3;exitX=0.5;exitY=1;exitDx=0;exitDy=0;entryX=0.5;entryY=1;entryDx=0;entryDy=0;" parent="1" source="374" edge="1">
                    <mxGeometry width="50" height="50" relative="1" as="geometry">
                        <mxPoint x="-520" y="861" as="sourcePoint"/>
                        <mxPoint x="-517" y="636" as="targetPoint"/>
                        <Array as="points">
                            <mxPoint x="-517" y="880"/>
                            <mxPoint x="-622" y="880"/>
                            <mxPoint x="-622" y="660"/>
                        </Array>
                    </mxGeometry>
                </mxCell>
                <mxCell id="387" value="" style="shape=flexArrow;endArrow=classic;html=1;fillColor=#60a917;strokeColor=#2D7600;fontStyle=0;noEdgeStyle=1;orthogonal=1;endWidth=5;endSize=4;width=3;exitX=0.5;exitY=1;exitDx=0;exitDy=0;entryX=0.5;entryY=1;entryDx=0;entryDy=0;" parent="1" source="374" target="214" edge="1">
                    <mxGeometry width="50" height="50" relative="1" as="geometry">
                        <mxPoint x="286.5" y="1573" as="sourcePoint"/>
                        <mxPoint x="-492" y="420" as="targetPoint"/>
                        <Array as="points">
                            <mxPoint x="-518" y="880"/>
                            <mxPoint x="-622" y="880"/>
                            <mxPoint x="-622" y="450"/>
                        </Array>
                    </mxGeometry>
                </mxCell>
                <mxCell id="388" value="" style="shape=flexArrow;endArrow=classic;html=1;fillColor=#60a917;strokeColor=#2D7600;fontStyle=0;noEdgeStyle=1;orthogonal=1;endWidth=5;endSize=4;width=3;entryX=0.5;entryY=0;entryDx=0;entryDy=0;exitX=0.5;exitY=1;exitDx=0;exitDy=0;" parent="1" source="374" target="377" edge="1">
                    <mxGeometry width="50" height="50" relative="1" as="geometry">
                        <mxPoint x="-227" y="1534" as="sourcePoint"/>
                        <mxPoint x="-227" y="1562" as="targetPoint"/>
                    </mxGeometry>
                </mxCell>
                <mxCell id="389" value="" style="shape=flexArrow;endArrow=classic;html=1;fillColor=#60a917;strokeColor=#2D7600;fontStyle=0;noEdgeStyle=1;orthogonal=1;endWidth=5;endSize=4;width=3;entryX=0.5;entryY=0;entryDx=0;entryDy=0;exitX=0.5;exitY=1;exitDx=0;exitDy=0;" parent="1" source="374" target="376" edge="1">
                    <mxGeometry width="50" height="50" relative="1" as="geometry">
                        <mxPoint x="-232" y="1005" as="sourcePoint"/>
                        <mxPoint x="-232" y="1033" as="targetPoint"/>
                        <Array as="points">
                            <mxPoint x="-518" y="880"/>
                            <mxPoint x="-622" y="880"/>
                            <mxPoint x="-622" y="1020"/>
                        </Array>
                    </mxGeometry>
                </mxCell>
                <mxCell id="390" value="" style="shape=flexArrow;endArrow=classic;html=1;fillColor=#60a917;strokeColor=#2D7600;fontStyle=0;noEdgeStyle=1;orthogonal=1;endWidth=5;endSize=4;width=3;entryX=0.5;entryY=0;entryDx=0;entryDy=0;exitX=0.5;exitY=1;exitDx=0;exitDy=0;" parent="1" source="374" target="375" edge="1">
                    <mxGeometry width="50" height="50" relative="1" as="geometry">
                        <mxPoint x="-222" y="1015" as="sourcePoint"/>
                        <mxPoint x="-222" y="1043" as="targetPoint"/>
                        <Array as="points">
                            <mxPoint x="-518" y="880"/>
                            <mxPoint x="-622" y="880"/>
                            <mxPoint x="-622" y="960"/>
                        </Array>
                    </mxGeometry>
                </mxCell>
                <mxCell id="392" value="" style="shape=flexArrow;endArrow=classic;html=1;fillColor=#60a917;strokeColor=#2D7600;fontStyle=0;noEdgeStyle=1;orthogonal=1;endWidth=5;endSize=4;width=3;exitX=0.5;exitY=1;exitDx=0;exitDy=0;entryX=0.5;entryY=1;entryDx=0;entryDy=0;" parent="1" source="374" target="246" edge="1">
                    <mxGeometry width="50" height="50" relative="1" as="geometry">
                        <mxPoint x="286.5" y="1573" as="sourcePoint"/>
                        <mxPoint x="108.5" y="675" as="targetPoint"/>
                        <Array as="points">
                            <mxPoint x="-518" y="880"/>
                            <mxPoint x="-622" y="880"/>
                            <mxPoint x="-622" y="300"/>
                        </Array>
                    </mxGeometry>
                </mxCell>
                <UserObject label="main" tooltip="assigns variables based on command line arguments (will override getParameters); runs functions&#10;" id="406">
                    <mxCell style="ellipse;whiteSpace=wrap;html=1;" parent="1" vertex="1">
                        <mxGeometry x="-402" y="22" width="120" height="22" as="geometry"/>
                    </mxCell>
                </UserObject>
                <mxCell id="407" style="edgeStyle=none;html=1;entryX=1;entryY=0.5;entryDx=0;entryDy=0;exitX=0;exitY=0.5;exitDx=0;exitDy=0;noEdgeStyle=1;orthogonal=1;" parent="1" source="73" target="406" edge="1">
                    <mxGeometry relative="1" as="geometry">
                        <mxPoint x="-87" y="1024.9999999999998" as="sourcePoint"/>
                        <mxPoint x="3.0000000000013642" y="1286" as="targetPoint"/>
                    </mxGeometry>
                </mxCell>
                <mxCell id="410" style="edgeStyle=none;html=1;entryX=1;entryY=0.5;entryDx=0;entryDy=0;exitX=0;exitY=0.5;exitDx=0;exitDy=0;noEdgeStyle=1;orthogonal=1;entryPerimeter=0;" parent="1" source="406" target="259" edge="1">
                    <mxGeometry relative="1" as="geometry">
                        <mxPoint x="-550" y="1120" as="sourcePoint"/>
                        <mxPoint x="-770" y="1667" as="targetPoint"/>
                        <Array as="points">
                            <mxPoint x="-660" y="49"/>
                            <mxPoint x="-660" y="70"/>
                        </Array>
                    </mxGeometry>
                </mxCell>
                <mxCell id="411" style="edgeStyle=none;html=1;noEdgeStyle=1;orthogonal=1;movable=1;resizable=1;rotatable=1;deletable=1;editable=1;connectable=1;fillColor=#D98DF7;strokeColor=#B266FF;strokeWidth=2;exitX=0;exitY=0.5;exitDx=0;exitDy=0;exitPerimeter=0;entryX=1;entryY=0.5;entryDx=0;entryDy=0;" parent="1" source="225" target="51" edge="1">
                    <mxGeometry relative="1" as="geometry">
                        <mxPoint x="-739" y="80" as="sourcePoint"/>
                        <mxPoint x="-700" y="80" as="targetPoint"/>
                    </mxGeometry>
                </mxCell>
                <mxCell id="412" style="edgeStyle=none;html=1;entryX=1;entryY=0.5;entryDx=0;entryDy=0;exitX=0;exitY=0.5;exitDx=0;exitDy=0;noEdgeStyle=1;orthogonal=1;entryPerimeter=0;" parent="1" source="406" target="225" edge="1">
                    <mxGeometry relative="1" as="geometry">
                        <mxPoint x="-710.0000000000034" y="1678" as="sourcePoint"/>
                        <mxPoint x="-590" y="1670" as="targetPoint"/>
                        <Array as="points">
                            <mxPoint x="-660" y="49"/>
                            <mxPoint x="-660" y="110"/>
                        </Array>
                    </mxGeometry>
                </mxCell>
                <mxCell id="414" style="edgeStyle=none;html=1;exitX=0;exitY=0.5;exitDx=0;exitDy=0;noEdgeStyle=1;orthogonal=1;entryX=1;entryY=0.5;entryDx=0;entryDy=0;entryPerimeter=0;" parent="1" source="406" target="235" edge="1">
                    <mxGeometry relative="1" as="geometry">
                        <mxPoint x="-709.9999999999997" y="1678" as="sourcePoint"/>
                        <mxPoint x="-650" y="153" as="targetPoint"/>
                        <Array as="points">
                            <mxPoint x="-660" y="49"/>
                            <mxPoint x="-660" y="150"/>
                        </Array>
                    </mxGeometry>
                </mxCell>
                <mxCell id="415" style="edgeStyle=none;html=1;entryX=1;entryY=0.5;entryDx=0;entryDy=0;exitX=0;exitY=0.5;exitDx=0;exitDy=0;noEdgeStyle=1;orthogonal=1;entryPerimeter=0;" parent="1" source="406" target="217" edge="1">
                    <mxGeometry relative="1" as="geometry">
                        <mxPoint x="-699.9999999999997" y="1688" as="sourcePoint"/>
                        <mxPoint x="-545" y="1720" as="targetPoint"/>
                        <Array as="points">
                            <mxPoint x="-660" y="50"/>
                            <mxPoint x="-660" y="190"/>
                        </Array>
                    </mxGeometry>
                </mxCell>
                <mxCell id="416" style="edgeStyle=none;html=1;entryX=1;entryY=0.5;entryDx=0;entryDy=0;exitX=0;exitY=0.5;exitDx=0;exitDy=0;noEdgeStyle=1;orthogonal=1;entryPerimeter=0;" parent="1" source="406" target="277" edge="1">
                    <mxGeometry relative="1" as="geometry">
                        <mxPoint x="-689.9999999999997" y="1698" as="sourcePoint"/>
                        <mxPoint x="-535" y="1730" as="targetPoint"/>
                        <Array as="points">
                            <mxPoint x="-660" y="49"/>
                            <mxPoint x="-660" y="230"/>
                        </Array>
                    </mxGeometry>
                </mxCell>
                <mxCell id="417" style="edgeStyle=none;html=1;entryX=1;entryY=0.5;entryDx=0;entryDy=0;exitX=0;exitY=0.5;exitDx=0;exitDy=0;noEdgeStyle=1;orthogonal=1;entryPerimeter=0;" parent="1" source="406" target="302" edge="1">
                    <mxGeometry relative="1" as="geometry">
                        <mxPoint x="-679.9999999999997" y="1708" as="sourcePoint"/>
                        <mxPoint x="-525" y="1740" as="targetPoint"/>
                        <Array as="points">
                            <mxPoint x="-660" y="49"/>
                            <mxPoint x="-660" y="270"/>
                        </Array>
                    </mxGeometry>
                </mxCell>
                <mxCell id="419" style="edgeStyle=none;html=1;entryX=1;entryY=0.5;entryDx=0;entryDy=0;exitX=0;exitY=0.5;exitDx=0;exitDy=0;noEdgeStyle=1;orthogonal=1;entryPerimeter=0;" parent="1" source="406" target="232" edge="1">
                    <mxGeometry relative="1" as="geometry">
                        <mxPoint x="-659.9999999999997" y="1728" as="sourcePoint"/>
                        <mxPoint x="-505" y="1760" as="targetPoint"/>
                        <Array as="points">
                            <mxPoint x="-660" y="49"/>
                            <mxPoint x="-660" y="350"/>
                        </Array>
                    </mxGeometry>
                </mxCell>
                <mxCell id="420" style="edgeStyle=none;html=1;entryX=1;entryY=0.5;entryDx=0;entryDy=0;exitX=0;exitY=0.5;exitDx=0;exitDy=0;noEdgeStyle=1;orthogonal=1;entryPerimeter=0;" parent="1" source="406" target="233" edge="1">
                    <mxGeometry relative="1" as="geometry">
                        <mxPoint x="-649.9999999999997" y="1738" as="sourcePoint"/>
                        <mxPoint x="-495" y="1770" as="targetPoint"/>
                        <Array as="points">
                            <mxPoint x="-660" y="50"/>
                            <mxPoint x="-660" y="389"/>
                        </Array>
                    </mxGeometry>
                </mxCell>
                <mxCell id="423" style="edgeStyle=none;html=1;noEdgeStyle=1;orthogonal=1;movable=1;resizable=1;rotatable=1;deletable=1;editable=1;connectable=1;fillColor=#D98DF7;strokeColor=#B266FF;strokeWidth=2;entryX=1;entryY=0.5;entryDx=0;entryDy=0;exitX=0;exitY=0.5;exitDx=0;exitDy=0;exitPerimeter=0;" parent="1" source="235" target="54" edge="1">
                    <mxGeometry relative="1" as="geometry">
                        <mxPoint x="-700" y="498" as="sourcePoint"/>
                        <mxPoint x="-660" y="468" as="targetPoint"/>
                    </mxGeometry>
                </mxCell>
                <mxCell id="45" value="Command Line Arguments" style="shape=table;startSize=30;container=1;collapsible=0;childLayout=tableLayout;movable=1;resizable=1;rotatable=1;deletable=1;editable=1;connectable=1;" parent="1" vertex="1">
                    <mxGeometry x="-1070" y="20" width="180" height="390" as="geometry"/>
                </mxCell>
                <mxCell id="46" value="" style="shape=partialRectangle;collapsible=0;dropTarget=0;pointerEvents=0;fillColor=none;top=0;left=0;bottom=0;right=0;points=[[0,0.5],[1,0.5]];portConstraint=eastwest;movable=1;resizable=1;rotatable=1;deletable=1;editable=1;connectable=1;" parent="45" vertex="1">
                    <mxGeometry y="30" width="180" height="40" as="geometry"/>
                </mxCell>
                <mxCell id="47" value="argv[1]" style="shape=partialRectangle;html=1;whiteSpace=wrap;connectable=1;overflow=hidden;fillColor=none;top=0;left=0;bottom=0;right=0;pointerEvents=1;movable=1;resizable=1;rotatable=1;deletable=1;editable=1;" parent="46" vertex="1">
                    <mxGeometry width="50" height="40" as="geometry">
                        <mxRectangle width="50" height="40" as="alternateBounds"/>
                    </mxGeometry>
                </mxCell>
                <mxCell id="48" value="parameters file" style="shape=partialRectangle;html=1;whiteSpace=wrap;connectable=1;overflow=hidden;fillColor=none;top=0;left=0;bottom=0;right=0;pointerEvents=1;movable=1;resizable=1;rotatable=1;deletable=1;editable=1;" parent="46" vertex="1">
                    <mxGeometry x="50" width="130" height="40" as="geometry">
                        <mxRectangle width="130" height="40" as="alternateBounds"/>
                    </mxGeometry>
                </mxCell>
                <mxCell id="49" value="" style="shape=partialRectangle;collapsible=0;dropTarget=0;pointerEvents=0;fillColor=none;top=0;left=0;bottom=0;right=0;points=[[0,0.5],[1,0.5]];portConstraint=eastwest;movable=1;resizable=1;rotatable=1;deletable=1;editable=1;connectable=1;" parent="45" vertex="1">
                    <mxGeometry y="70" width="180" height="40" as="geometry"/>
                </mxCell>
                <mxCell id="50" value="&lt;span style=&quot;color: rgb(240 , 240 , 240) ; font-family: &amp;#34;helvetica&amp;#34; ; font-size: 12px ; font-style: normal ; font-weight: 400 ; letter-spacing: normal ; text-align: center ; text-indent: 0px ; text-transform: none ; word-spacing: 0px ; background-color: rgb(42 , 42 , 42) ; display: inline ; float: none&quot;&gt;argv[2]&lt;/span&gt;" style="shape=partialRectangle;html=1;whiteSpace=wrap;connectable=1;overflow=hidden;fillColor=none;top=0;left=0;bottom=0;right=0;pointerEvents=1;movable=1;resizable=1;rotatable=1;deletable=1;editable=1;" parent="49" vertex="1">
                    <mxGeometry width="50" height="40" as="geometry">
                        <mxRectangle width="50" height="40" as="alternateBounds"/>
                    </mxGeometry>
                </mxCell>
                <mxCell id="51" value="output file name" style="shape=partialRectangle;html=1;whiteSpace=wrap;connectable=1;overflow=hidden;fillColor=none;top=0;left=0;bottom=0;right=0;pointerEvents=1;movable=1;resizable=1;rotatable=1;deletable=1;editable=1;" parent="49" vertex="1">
                    <mxGeometry x="50" width="130" height="40" as="geometry">
                        <mxRectangle width="130" height="40" as="alternateBounds"/>
                    </mxGeometry>
                </mxCell>
                <mxCell id="52" value="" style="shape=partialRectangle;collapsible=0;dropTarget=0;pointerEvents=0;fillColor=none;top=0;left=0;bottom=0;right=0;points=[[0,0.5],[1,0.5]];portConstraint=eastwest;movable=1;resizable=1;rotatable=1;deletable=1;editable=1;connectable=1;" parent="45" vertex="1">
                    <mxGeometry y="110" width="180" height="40" as="geometry"/>
                </mxCell>
                <mxCell id="53" value="&lt;span style=&quot;color: rgb(240 , 240 , 240) ; font-family: &amp;#34;helvetica&amp;#34; ; font-size: 12px ; font-style: normal ; font-weight: 400 ; letter-spacing: normal ; text-align: center ; text-indent: 0px ; text-transform: none ; word-spacing: 0px ; background-color: rgb(42 , 42 , 42) ; display: inline ; float: none&quot;&gt;argv[3]&lt;/span&gt;" style="shape=partialRectangle;html=1;whiteSpace=wrap;connectable=1;overflow=hidden;fillColor=none;top=0;left=0;bottom=0;right=0;pointerEvents=1;movable=1;resizable=1;rotatable=1;deletable=1;editable=1;" parent="52" vertex="1">
                    <mxGeometry width="50" height="40" as="geometry">
                        <mxRectangle width="50" height="40" as="alternateBounds"/>
                    </mxGeometry>
                </mxCell>
                <mxCell id="54" value="verbose T/F" style="shape=partialRectangle;html=1;whiteSpace=wrap;connectable=1;overflow=hidden;fillColor=none;top=0;left=0;bottom=0;right=0;pointerEvents=1;movable=1;resizable=1;rotatable=1;deletable=1;editable=1;" parent="52" vertex="1">
                    <mxGeometry x="50" width="130" height="40" as="geometry">
                        <mxRectangle width="130" height="40" as="alternateBounds"/>
                    </mxGeometry>
                </mxCell>
                <mxCell id="55" value="" style="shape=partialRectangle;collapsible=0;dropTarget=0;pointerEvents=0;fillColor=none;top=0;left=0;bottom=0;right=0;points=[[0,0.5],[1,0.5]];portConstraint=eastwest;movable=1;resizable=1;rotatable=1;deletable=1;editable=1;connectable=1;" parent="45" vertex="1">
                    <mxGeometry y="150" width="180" height="40" as="geometry"/>
                </mxCell>
                <mxCell id="56" value="&lt;span style=&quot;color: rgb(240 , 240 , 240) ; font-family: &amp;#34;helvetica&amp;#34; ; font-size: 12px ; font-style: normal ; font-weight: 400 ; letter-spacing: normal ; text-align: center ; text-indent: 0px ; text-transform: none ; word-spacing: 0px ; background-color: rgb(42 , 42 , 42) ; display: inline ; float: none&quot;&gt;argv[4]&lt;/span&gt;" style="shape=partialRectangle;html=1;whiteSpace=wrap;connectable=1;overflow=hidden;fillColor=none;top=0;left=0;bottom=0;right=0;pointerEvents=1;movable=1;resizable=1;rotatable=1;deletable=1;editable=1;" parent="55" vertex="1">
                    <mxGeometry width="50" height="40" as="geometry">
                        <mxRectangle width="50" height="40" as="alternateBounds"/>
                    </mxGeometry>
                </mxCell>
                <mxCell id="57" value="# of filaments" style="shape=partialRectangle;html=1;whiteSpace=wrap;connectable=1;overflow=hidden;fillColor=none;top=0;left=0;bottom=0;right=0;pointerEvents=1;movable=1;resizable=1;rotatable=1;deletable=1;editable=1;" parent="55" vertex="1">
                    <mxGeometry x="50" width="130" height="40" as="geometry">
                        <mxRectangle width="130" height="40" as="alternateBounds"/>
                    </mxGeometry>
                </mxCell>
                <mxCell id="58" value="" style="shape=partialRectangle;collapsible=0;dropTarget=0;pointerEvents=0;fillColor=none;top=0;left=0;bottom=0;right=0;points=[[0,0.5],[1,0.5]];portConstraint=eastwest;movable=1;resizable=1;rotatable=1;deletable=1;editable=1;connectable=1;" parent="45" vertex="1">
                    <mxGeometry y="190" width="180" height="40" as="geometry"/>
                </mxCell>
                <mxCell id="59" value="&lt;span&gt;argv[5]&lt;/span&gt;" style="shape=partialRectangle;html=1;whiteSpace=wrap;connectable=1;overflow=hidden;fillColor=none;top=0;left=0;bottom=0;right=0;pointerEvents=1;movable=1;resizable=1;rotatable=1;deletable=1;editable=1;" parent="58" vertex="1">
                    <mxGeometry width="50" height="40" as="geometry">
                        <mxRectangle width="50" height="40" as="alternateBounds"/>
                    </mxGeometry>
                </mxCell>
                <mxCell id="60" value="filament length" style="shape=partialRectangle;html=1;whiteSpace=wrap;connectable=1;overflow=hidden;fillColor=none;top=0;left=0;bottom=0;right=0;pointerEvents=1;movable=1;resizable=1;rotatable=1;deletable=1;editable=1;" parent="58" vertex="1">
                    <mxGeometry x="50" width="130" height="40" as="geometry">
                        <mxRectangle width="130" height="40" as="alternateBounds"/>
                    </mxGeometry>
                </mxCell>
                <mxCell id="61" value="" style="shape=partialRectangle;collapsible=0;dropTarget=0;pointerEvents=0;fillColor=none;top=0;left=0;bottom=0;right=0;points=[[0,0.5],[1,0.5]];portConstraint=eastwest;movable=1;resizable=1;rotatable=1;deletable=1;editable=1;connectable=1;" parent="45" vertex="1">
                    <mxGeometry y="230" width="180" height="40" as="geometry"/>
                </mxCell>
                <mxCell id="62" value="&lt;span&gt;argv[6]&lt;/span&gt;" style="shape=partialRectangle;html=1;whiteSpace=wrap;connectable=1;overflow=hidden;fillColor=none;top=0;left=0;bottom=0;right=0;pointerEvents=1;movable=1;resizable=1;rotatable=1;deletable=1;editable=1;" parent="61" vertex="1">
                    <mxGeometry width="50" height="40" as="geometry">
                        <mxRectangle width="50" height="40" as="alternateBounds"/>
                    </mxGeometry>
                </mxCell>
                <mxCell id="63" value="location of iSite (not used, set to -1)" style="shape=partialRectangle;html=1;whiteSpace=wrap;connectable=1;overflow=hidden;fillColor=none;top=0;left=0;bottom=0;right=0;pointerEvents=1;movable=1;resizable=1;rotatable=1;deletable=1;editable=1;" parent="61" vertex="1">
                    <mxGeometry x="50" width="130" height="40" as="geometry">
                        <mxRectangle width="130" height="40" as="alternateBounds"/>
                    </mxGeometry>
                </mxCell>
                <mxCell id="64" value="" style="shape=partialRectangle;collapsible=0;dropTarget=0;pointerEvents=0;fillColor=none;top=0;left=0;bottom=0;right=0;points=[[0,0.5],[1,0.5]];portConstraint=eastwest;movable=1;resizable=1;rotatable=1;deletable=1;editable=1;connectable=1;" parent="45" vertex="1">
                    <mxGeometry y="270" width="180" height="40" as="geometry"/>
                </mxCell>
                <mxCell id="65" value="&lt;span&gt;argv[7]&lt;/span&gt;" style="shape=partialRectangle;html=1;whiteSpace=wrap;connectable=1;overflow=hidden;fillColor=none;top=0;left=0;bottom=0;right=0;pointerEvents=1;movable=1;resizable=1;rotatable=1;deletable=1;editable=1;" parent="64" vertex="1">
                    <mxGeometry width="50" height="40" as="geometry">
                        <mxRectangle width="50" height="40" as="alternateBounds"/>
                    </mxGeometry>
                </mxCell>
                <mxCell id="66" value="base separation distance" style="shape=partialRectangle;html=1;whiteSpace=wrap;connectable=1;overflow=hidden;fillColor=none;top=0;left=0;bottom=0;right=0;pointerEvents=1;movable=1;resizable=1;rotatable=1;deletable=1;editable=1;" parent="64" vertex="1">
                    <mxGeometry x="50" width="130" height="40" as="geometry">
                        <mxRectangle width="130" height="40" as="alternateBounds"/>
                    </mxGeometry>
                </mxCell>
                <mxCell id="67" value="" style="shape=partialRectangle;collapsible=0;dropTarget=0;pointerEvents=0;fillColor=none;top=0;left=0;bottom=0;right=0;points=[[0,0.5],[1,0.5]];portConstraint=eastwest;movable=1;resizable=1;rotatable=1;deletable=1;editable=1;connectable=1;" parent="45" vertex="1">
                    <mxGeometry y="310" width="180" height="40" as="geometry"/>
                </mxCell>
                <mxCell id="68" value="&lt;span&gt;argv[8]&lt;/span&gt;" style="shape=partialRectangle;html=1;whiteSpace=wrap;connectable=1;overflow=hidden;fillColor=none;top=0;left=0;bottom=0;right=0;pointerEvents=1;movable=1;resizable=1;rotatable=1;deletable=1;editable=1;" parent="67" vertex="1">
                    <mxGeometry width="50" height="40" as="geometry">
                        <mxRectangle width="50" height="40" as="alternateBounds"/>
                    </mxGeometry>
                </mxCell>
                <mxCell id="69" value="force" style="shape=partialRectangle;html=1;whiteSpace=wrap;connectable=1;overflow=hidden;fillColor=none;top=0;left=0;bottom=0;right=0;pointerEvents=1;movable=1;resizable=1;rotatable=1;deletable=1;editable=1;" parent="67" vertex="1">
                    <mxGeometry x="50" width="130" height="40" as="geometry">
                        <mxRectangle width="130" height="40" as="alternateBounds"/>
                    </mxGeometry>
                </mxCell>
                <mxCell id="70" value="" style="shape=partialRectangle;collapsible=0;dropTarget=0;pointerEvents=0;fillColor=none;top=0;left=0;bottom=0;right=0;points=[[0,0.5],[1,0.5]];portConstraint=eastwest;movable=1;resizable=1;rotatable=1;deletable=1;editable=1;connectable=1;" parent="45" vertex="1">
                    <mxGeometry y="350" width="180" height="40" as="geometry"/>
                </mxCell>
                <mxCell id="71" value="&lt;span&gt;argv[9]&lt;/span&gt;" style="shape=partialRectangle;html=1;whiteSpace=wrap;connectable=1;overflow=hidden;fillColor=none;top=0;left=0;bottom=0;right=0;pointerEvents=1;movable=1;resizable=1;rotatable=1;deletable=1;editable=1;" parent="70" vertex="1">
                    <mxGeometry width="50" height="40" as="geometry">
                        <mxRectangle width="50" height="40" as="alternateBounds"/>
                    </mxGeometry>
                </mxCell>
                <mxCell id="72" value="spring constant" style="shape=partialRectangle;html=1;whiteSpace=wrap;connectable=1;overflow=hidden;fillColor=none;top=0;left=0;bottom=0;right=0;pointerEvents=1;movable=1;resizable=1;rotatable=1;deletable=1;editable=1;" parent="70" vertex="1">
                    <mxGeometry x="50" width="130" height="40" as="geometry">
                        <mxRectangle width="130" height="40" as="alternateBounds"/>
                    </mxGeometry>
                </mxCell>
                <mxCell id="434" value="" style="shape=flexArrow;endArrow=classic;html=1;exitX=0.5;exitY=1;exitDx=0;exitDy=0;fillColor=#60a917;strokeColor=#2D7600;fontStyle=0;noEdgeStyle=1;orthogonal=1;endWidth=5;endSize=4;width=3;entryX=0.5;entryY=0;entryDx=0;entryDy=0;" parent="1" source="406" target="256" edge="1">
                    <mxGeometry width="50" height="50" relative="1" as="geometry">
                        <mxPoint x="-516.9999999999998" y="1135" as="sourcePoint"/>
                        <mxPoint x="-517.0000000000002" y="1413" as="targetPoint"/>
                        <Array as="points">
                            <mxPoint x="-342" y="70"/>
                        </Array>
                    </mxGeometry>
                </mxCell>
                <mxCell id="435" value="" style="shape=flexArrow;endArrow=classic;html=1;exitX=0.5;exitY=1;exitDx=0;exitDy=0;fillColor=#60a917;strokeColor=#2D7600;fontStyle=0;noEdgeStyle=1;orthogonal=1;endWidth=5;endSize=4;width=3;entryX=0.5;entryY=0;entryDx=0;entryDy=0;" parent="1" source="406" target="365" edge="1">
                    <mxGeometry width="50" height="50" relative="1" as="geometry">
                        <mxPoint x="-792" y="1723" as="sourcePoint"/>
                        <mxPoint x="-577.0000000000009" y="1486" as="targetPoint"/>
                        <Array as="points">
                            <mxPoint x="-342" y="730"/>
                        </Array>
                    </mxGeometry>
                </mxCell>
                <mxCell id="436" value="" style="shape=flexArrow;endArrow=classic;html=1;exitX=0.5;exitY=1;exitDx=0;exitDy=0;fillColor=#60a917;strokeColor=#2D7600;fontStyle=0;noEdgeStyle=1;orthogonal=1;endWidth=5;endSize=4;width=3;entryX=0.5;entryY=0;entryDx=0;entryDy=0;" parent="1" source="406" target="338" edge="1">
                    <mxGeometry width="50" height="50" relative="1" as="geometry">
                        <mxPoint x="-782" y="1733" as="sourcePoint"/>
                        <mxPoint x="140.5" y="1426.75" as="targetPoint"/>
                        <Array as="points">
                            <mxPoint x="-342" y="400"/>
                        </Array>
                    </mxGeometry>
                </mxCell>
                <mxCell id="437" value="" style="shape=flexArrow;endArrow=classic;html=1;exitX=0.5;exitY=1;exitDx=0;exitDy=0;fillColor=#60a917;strokeColor=#2D7600;fontStyle=0;noEdgeStyle=1;orthogonal=1;endWidth=5;endSize=4;width=3;entryX=0.5;entryY=0;entryDx=0;entryDy=0;" parent="1" source="406" target="364" edge="1">
                    <mxGeometry width="50" height="50" relative="1" as="geometry">
                        <mxPoint x="-772" y="1743" as="sourcePoint"/>
                        <mxPoint x="150.5" y="1436.75" as="targetPoint"/>
                        <Array as="points">
                            <mxPoint x="-342" y="650"/>
                        </Array>
                    </mxGeometry>
                </mxCell>
                <mxCell id="438" value="" style="shape=flexArrow;endArrow=classic;html=1;exitX=0.5;exitY=1;exitDx=0;exitDy=0;fillColor=#60a917;strokeColor=#2D7600;fontStyle=0;noEdgeStyle=1;orthogonal=1;endWidth=5;endSize=4;width=3;entryX=0.5;entryY=0;entryDx=0;entryDy=0;" parent="1" source="406" target="374" edge="1">
                    <mxGeometry width="50" height="50" relative="1" as="geometry">
                        <mxPoint x="-762" y="1753" as="sourcePoint"/>
                        <mxPoint x="160.5" y="1446.75" as="targetPoint"/>
                        <Array as="points">
                            <mxPoint x="-342" y="820"/>
                        </Array>
                    </mxGeometry>
                </mxCell>
                <mxCell id="439" value="" style="shape=flexArrow;endArrow=classic;html=1;fillColor=#60a917;strokeColor=#2D7600;fontStyle=0;noEdgeStyle=1;orthogonal=1;endWidth=5;endSize=4;width=3;entryX=0.5;entryY=1;entryDx=0;entryDy=0;exitX=0.5;exitY=1;exitDx=0;exitDy=0;" parent="1" source="406" target="149" edge="1">
                    <mxGeometry width="50" height="50" relative="1" as="geometry">
                        <mxPoint x="-262" y="170" as="sourcePoint"/>
                        <mxPoint x="-142" y="382" as="targetPoint"/>
                        <Array as="points">
                            <mxPoint x="-342" y="1010"/>
                            <mxPoint x="313" y="1010"/>
                        </Array>
                    </mxGeometry>
                </mxCell>
                <mxCell id="440" value="" style="group;fontSize=20;" parent="1" vertex="1" connectable="0">
                    <mxGeometry x="228" y="97" width="290" height="399" as="geometry"/>
                </mxCell>
                <mxCell id="182" value="Key" style="shape=table;startSize=30;container=1;collapsible=0;childLayout=tableLayout;movable=1;resizable=1;rotatable=1;deletable=1;editable=1;connectable=1;fontSize=20;" parent="440" vertex="1">
                    <mxGeometry width="290" height="399.0000000000001" as="geometry"/>
                </mxCell>
                <mxCell id="183" value="" style="shape=partialRectangle;collapsible=0;dropTarget=0;pointerEvents=0;fillColor=none;top=0;left=0;bottom=0;right=0;points=[[0,0.5],[1,0.5]];portConstraint=eastwest;movable=1;resizable=1;rotatable=1;deletable=1;editable=1;connectable=1;" parent="182" vertex="1">
                    <mxGeometry y="30" width="290" height="46" as="geometry"/>
                </mxCell>
                <mxCell id="184" value="script" style="shape=partialRectangle;html=1;whiteSpace=wrap;connectable=1;overflow=hidden;fillColor=none;top=0;left=0;bottom=0;right=0;pointerEvents=1;movable=1;resizable=1;rotatable=1;deletable=1;editable=1;fontSize=20;" parent="183" vertex="1">
                    <mxGeometry width="145" height="46" as="geometry">
                        <mxRectangle width="145" height="46" as="alternateBounds"/>
                    </mxGeometry>
                </mxCell>
                <mxCell id="185" value="" style="shape=partialRectangle;html=1;whiteSpace=wrap;connectable=1;overflow=hidden;fillColor=none;top=0;left=0;bottom=0;right=0;pointerEvents=1;movable=1;resizable=1;rotatable=1;deletable=1;editable=1;" parent="183" vertex="1">
                    <mxGeometry x="145" width="145" height="46" as="geometry">
                        <mxRectangle width="145" height="46" as="alternateBounds"/>
                    </mxGeometry>
                </mxCell>
                <mxCell id="186" value="" style="shape=partialRectangle;collapsible=0;dropTarget=0;pointerEvents=0;fillColor=none;top=0;left=0;bottom=0;right=0;points=[[0,0.5],[1,0.5]];portConstraint=eastwest;movable=1;resizable=1;rotatable=1;deletable=1;editable=1;connectable=1;" parent="182" vertex="1">
                    <mxGeometry y="76" width="290" height="46" as="geometry"/>
                </mxCell>
                <mxCell id="187" value="function" style="shape=partialRectangle;html=1;whiteSpace=wrap;connectable=1;overflow=hidden;fillColor=none;top=0;left=0;bottom=0;right=0;pointerEvents=1;movable=1;resizable=1;rotatable=1;deletable=1;editable=1;fontSize=20;" parent="186" vertex="1">
                    <mxGeometry width="145" height="46" as="geometry">
                        <mxRectangle width="145" height="46" as="alternateBounds"/>
                    </mxGeometry>
                </mxCell>
                <mxCell id="188" value="" style="shape=partialRectangle;html=1;whiteSpace=wrap;connectable=1;overflow=hidden;fillColor=none;top=0;left=0;bottom=0;right=0;pointerEvents=1;movable=1;resizable=1;rotatable=1;deletable=1;editable=1;" parent="186" vertex="1">
                    <mxGeometry x="145" width="145" height="46" as="geometry">
                        <mxRectangle width="145" height="46" as="alternateBounds"/>
                    </mxGeometry>
                </mxCell>
                <mxCell id="189" value="" style="shape=partialRectangle;collapsible=0;dropTarget=0;pointerEvents=0;fillColor=none;top=0;left=0;bottom=0;right=0;points=[[0,0.5],[1,0.5]];portConstraint=eastwest;movable=1;resizable=1;rotatable=1;deletable=1;editable=1;connectable=1;" parent="182" vertex="1">
                    <mxGeometry y="122" width="290" height="46" as="geometry"/>
                </mxCell>
                <mxCell id="190" value="&lt;font style=&quot;font-size: 20px&quot;&gt;variable&lt;/font&gt;" style="shape=partialRectangle;html=1;whiteSpace=wrap;connectable=1;overflow=hidden;fillColor=none;top=0;left=0;bottom=0;right=0;pointerEvents=1;movable=1;resizable=1;rotatable=1;deletable=1;editable=1;" parent="189" vertex="1">
                    <mxGeometry width="145" height="46" as="geometry">
                        <mxRectangle width="145" height="46" as="alternateBounds"/>
                    </mxGeometry>
                </mxCell>
                <mxCell id="191" value="" style="shape=partialRectangle;html=1;whiteSpace=wrap;connectable=1;overflow=hidden;fillColor=none;top=0;left=0;bottom=0;right=0;pointerEvents=1;movable=1;resizable=1;rotatable=1;deletable=1;editable=1;" parent="189" vertex="1">
                    <mxGeometry x="145" width="145" height="46" as="geometry">
                        <mxRectangle width="145" height="46" as="alternateBounds"/>
                    </mxGeometry>
                </mxCell>
                <mxCell id="192" value="" style="shape=partialRectangle;collapsible=0;dropTarget=0;pointerEvents=0;fillColor=none;top=0;left=0;bottom=0;right=0;points=[[0,0.5],[1,0.5]];portConstraint=eastwest;movable=1;resizable=1;rotatable=1;deletable=1;editable=1;connectable=1;" parent="182" vertex="1">
                    <mxGeometry y="168" width="290" height="47" as="geometry"/>
                </mxCell>
                <mxCell id="193" value="file" style="shape=partialRectangle;html=1;whiteSpace=wrap;connectable=1;overflow=hidden;fillColor=none;top=0;left=0;bottom=0;right=0;pointerEvents=1;movable=1;resizable=1;rotatable=1;deletable=1;editable=1;fontSize=20;" parent="192" vertex="1">
                    <mxGeometry width="145" height="47" as="geometry">
                        <mxRectangle width="145" height="47" as="alternateBounds"/>
                    </mxGeometry>
                </mxCell>
                <mxCell id="194" value="" style="shape=partialRectangle;html=1;whiteSpace=wrap;connectable=1;overflow=hidden;fillColor=none;top=0;left=0;bottom=0;right=0;pointerEvents=1;movable=1;resizable=1;rotatable=1;deletable=1;editable=1;" parent="192" vertex="1">
                    <mxGeometry x="145" width="145" height="47" as="geometry">
                        <mxRectangle width="145" height="47" as="alternateBounds"/>
                    </mxGeometry>
                </mxCell>
                <mxCell id="195" value="" style="shape=partialRectangle;collapsible=0;dropTarget=0;pointerEvents=0;fillColor=none;top=0;left=0;bottom=0;right=0;points=[[0,0.5],[1,0.5]];portConstraint=eastwest;movable=1;resizable=1;rotatable=1;deletable=1;editable=1;connectable=1;" parent="182" vertex="1">
                    <mxGeometry y="215" width="290" height="46" as="geometry"/>
                </mxCell>
                <mxCell id="196" value="&lt;font style=&quot;font-size: 20px&quot;&gt;defines&lt;/font&gt;" style="shape=partialRectangle;html=1;whiteSpace=wrap;connectable=1;overflow=hidden;fillColor=none;top=0;left=0;bottom=0;right=0;pointerEvents=1;movable=1;resizable=1;rotatable=1;deletable=1;editable=1;" parent="195" vertex="1">
                    <mxGeometry width="145" height="46" as="geometry">
                        <mxRectangle width="145" height="46" as="alternateBounds"/>
                    </mxGeometry>
                </mxCell>
                <mxCell id="197" value="" style="shape=partialRectangle;html=1;whiteSpace=wrap;connectable=1;overflow=hidden;fillColor=none;top=0;left=0;bottom=0;right=0;pointerEvents=1;shadow=1;movable=1;resizable=1;rotatable=1;deletable=1;editable=1;" parent="195" vertex="1">
                    <mxGeometry x="145" width="145" height="46" as="geometry">
                        <mxRectangle width="145" height="46" as="alternateBounds"/>
                    </mxGeometry>
                </mxCell>
                <mxCell id="201" style="shape=partialRectangle;collapsible=0;dropTarget=0;pointerEvents=0;fillColor=none;top=0;left=0;bottom=0;right=0;points=[[0,0.5],[1,0.5]];portConstraint=eastwest;movable=1;resizable=1;rotatable=1;deletable=1;editable=1;connectable=1;" parent="182" vertex="1">
                    <mxGeometry y="261" width="290" height="46" as="geometry"/>
                </mxCell>
                <mxCell id="202" value="&lt;font style=&quot;font-size: 20px&quot;&gt;runs&lt;/font&gt;" style="shape=partialRectangle;html=1;whiteSpace=wrap;connectable=1;overflow=hidden;fillColor=none;top=0;left=0;bottom=0;right=0;pointerEvents=1;movable=1;resizable=1;rotatable=1;deletable=1;editable=1;" parent="201" vertex="1">
                    <mxGeometry width="145" height="46" as="geometry">
                        <mxRectangle width="145" height="46" as="alternateBounds"/>
                    </mxGeometry>
                </mxCell>
                <mxCell id="203" style="shape=partialRectangle;html=1;whiteSpace=wrap;connectable=1;overflow=hidden;fillColor=none;top=0;left=0;bottom=0;right=0;pointerEvents=1;shadow=1;movable=1;resizable=1;rotatable=1;deletable=1;editable=1;" parent="201" vertex="1">
                    <mxGeometry x="145" width="145" height="46" as="geometry">
                        <mxRectangle width="145" height="46" as="alternateBounds"/>
                    </mxGeometry>
                </mxCell>
                <mxCell id="198" style="shape=partialRectangle;collapsible=0;dropTarget=0;pointerEvents=0;fillColor=none;top=0;left=0;bottom=0;right=0;points=[[0,0.5],[1,0.5]];portConstraint=eastwest;movable=1;resizable=1;rotatable=1;deletable=1;editable=1;connectable=1;" parent="182" vertex="1">
                    <mxGeometry y="307" width="290" height="46" as="geometry"/>
                </mxCell>
                <mxCell id="199" value="&lt;font style=&quot;font-size: 20px&quot;&gt;Calls/Reads&lt;/font&gt;" style="shape=partialRectangle;html=1;whiteSpace=wrap;connectable=1;overflow=hidden;fillColor=none;top=0;left=0;bottom=0;right=0;pointerEvents=1;movable=1;resizable=1;rotatable=1;deletable=1;editable=1;" parent="198" vertex="1">
                    <mxGeometry width="145" height="46" as="geometry">
                        <mxRectangle width="145" height="46" as="alternateBounds"/>
                    </mxGeometry>
                </mxCell>
                <mxCell id="200" style="shape=partialRectangle;html=1;whiteSpace=wrap;connectable=1;overflow=hidden;fillColor=none;top=0;left=0;bottom=0;right=0;pointerEvents=1;shadow=1;movable=1;resizable=1;rotatable=1;deletable=1;editable=1;" parent="198" vertex="1">
                    <mxGeometry x="145" width="145" height="46" as="geometry">
                        <mxRectangle width="145" height="46" as="alternateBounds"/>
                    </mxGeometry>
                </mxCell>
                <mxCell id="267" style="shape=partialRectangle;collapsible=0;dropTarget=0;pointerEvents=0;fillColor=none;top=0;left=0;bottom=0;right=0;points=[[0,0.5],[1,0.5]];portConstraint=eastwest;movable=1;resizable=1;rotatable=1;deletable=1;editable=1;connectable=1;" parent="182" vertex="1">
                    <mxGeometry y="353" width="290" height="46" as="geometry"/>
                </mxCell>
                <mxCell id="268" value="&lt;font style=&quot;font-size: 20px&quot;&gt;defined as&lt;/font&gt;" style="shape=partialRectangle;html=1;whiteSpace=wrap;connectable=1;overflow=hidden;fillColor=none;top=0;left=0;bottom=0;right=0;pointerEvents=1;movable=1;resizable=1;rotatable=1;deletable=1;editable=1;" parent="267" vertex="1">
                    <mxGeometry width="145" height="46" as="geometry">
                        <mxRectangle width="145" height="46" as="alternateBounds"/>
                    </mxGeometry>
                </mxCell>
                <mxCell id="269" style="shape=partialRectangle;html=1;whiteSpace=wrap;connectable=1;overflow=hidden;fillColor=none;top=0;left=0;bottom=0;right=0;pointerEvents=1;shadow=1;movable=1;resizable=1;rotatable=1;deletable=1;editable=1;" parent="267" vertex="1">
                    <mxGeometry x="145" width="145" height="46" as="geometry">
                        <mxRectangle width="145" height="46" as="alternateBounds"/>
                    </mxGeometry>
                </mxCell>
                <mxCell id="204" style="edgeStyle=none;html=1;noEdgeStyle=1;orthogonal=1;movable=1;resizable=1;rotatable=1;deletable=1;editable=1;connectable=1;" parent="440" edge="1">
                    <mxGeometry relative="1" as="geometry">
                        <mxPoint x="177.2222222222222" y="238.9221556886228" as="sourcePoint"/>
                        <mxPoint x="257.7777777777777" y="238.9221556886228" as="targetPoint"/>
                    </mxGeometry>
                </mxCell>
                <mxCell id="206" value="" style="shape=flexArrow;endArrow=classic;html=1;entryX=0;entryY=1;entryDx=0;entryDy=0;fillColor=#60a917;strokeColor=#2D7600;fontStyle=0;noEdgeStyle=1;orthogonal=1;width=3;endWidth=5;endSize=4;movable=1;resizable=1;rotatable=1;deletable=1;editable=1;connectable=1;" parent="440" edge="1">
                    <mxGeometry width="50" height="50" relative="1" as="geometry">
                        <mxPoint x="177.2222222222222" y="285.75089820359284" as="sourcePoint"/>
                        <mxPoint x="275.4472113060692" y="285.5060935783548" as="targetPoint"/>
                    </mxGeometry>
                </mxCell>
                <UserObject label="" tooltip="" id="208">
                    <mxCell style="ellipse;whiteSpace=wrap;html=1;movable=1;resizable=1;rotatable=1;deletable=1;editable=1;connectable=1;" parent="440" vertex="1">
                        <mxGeometry x="180.4444444444444" y="91.98502994011979" width="80.55555555555554" height="26.281437125748507" as="geometry"/>
                    </mxCell>
                </UserObject>
                <mxCell id="209" value="" style="rounded=0;whiteSpace=wrap;html=1;movable=1;resizable=1;rotatable=1;deletable=1;editable=1;connectable=1;" parent="440" vertex="1">
                    <mxGeometry x="188.5" y="47.78443113772456" width="64.44444444444443" height="23.89221556886228" as="geometry"/>
                </mxCell>
                <mxCell id="216" value="" style="shape=display;whiteSpace=wrap;html=1;" parent="440" vertex="1">
                    <mxGeometry x="174" y="137.3802395209581" width="85.38888888888887" height="23.89221556886228" as="geometry"/>
                </mxCell>
                <mxCell id="220" value="" style="shape=flexArrow;endArrow=classic;html=1;fillColor=none;strokeColor=#006EAF;strokeWidth=2;width=2;startSize=4;endSize=2.7518518518518515;exitX=0.5;exitY=1;exitDx=0;exitDy=0;endWidth=7.777777777777778;" parent="440" edge="1">
                    <mxGeometry width="50" height="50" relative="1" as="geometry">
                        <mxPoint x="183.66666666666666" y="334.49101796407194" as="sourcePoint"/>
                        <mxPoint x="261" y="334.49101796407194" as="targetPoint"/>
                    </mxGeometry>
                </mxCell>
                <mxCell id="260" value="" style="shape=note;whiteSpace=wrap;html=1;backgroundOutline=1;darkOpacity=0.05;size=13;" parent="440" vertex="1">
                    <mxGeometry x="180.4444444444444" y="180.3862275449102" width="80.55555555555554" height="29.86526946107785" as="geometry"/>
                </mxCell>
                <mxCell id="270" style="edgeStyle=none;html=1;noEdgeStyle=1;orthogonal=1;movable=1;resizable=1;rotatable=1;deletable=1;editable=1;connectable=1;fillColor=#D98DF7;strokeColor=#B266FF;strokeWidth=2;" parent="440" edge="1">
                    <mxGeometry relative="1" as="geometry">
                        <mxPoint x="176.41666666666666" y="378.6916167664672" as="sourcePoint"/>
                        <mxPoint x="256.9722222222222" y="378.6916167664672" as="targetPoint"/>
                    </mxGeometry>
                </mxCell>
                <mxCell id="443" value="" style="group;flipH=1;" parent="1" vertex="1" connectable="0">
                    <mxGeometry x="79" y="750" width="649" height="494" as="geometry"/>
                </mxCell>
                <mxCell id="74" value="twister.c" style="rounded=0;whiteSpace=wrap;html=1;movable=1;resizable=1;rotatable=1;deletable=1;editable=1;connectable=1;" parent="443" vertex="1">
                    <mxGeometry x="28" y="269" width="60" height="20" as="geometry"/>
                </mxCell>
                <UserObject label="init_genrand" tooltip="initializes state[NTWIST] with a seed;&#10;input is unsigned long s&#10;" id="77">
                    <mxCell style="ellipse;whiteSpace=wrap;html=1;movable=1;resizable=1;rotatable=1;deletable=1;editable=1;connectable=1;" parent="443" vertex="1">
                        <mxGeometry x="398" y="246" width="98" height="22" as="geometry"/>
                    </mxCell>
                </UserObject>
                <mxCell id="78" style="edgeStyle=none;html=1;exitX=1;exitY=0.5;exitDx=0;exitDy=0;noEdgeStyle=1;orthogonal=1;movable=1;resizable=1;rotatable=1;deletable=1;editable=1;connectable=1;" parent="443" source="74" target="77" edge="1">
                    <mxGeometry relative="1" as="geometry">
                        <Array as="points">
                            <mxPoint x="110" y="284"/>
                            <mxPoint x="110" y="424"/>
                            <mxPoint x="330" y="424"/>
                            <mxPoint x="368" y="265.25"/>
                        </Array>
                    </mxGeometry>
                </mxCell>
                <UserObject label="init_by_array" tooltip="initialize by an array with array-length;&#10;input is unsigned long init_key[], int key_length&#10;" id="79">
                    <mxCell style="ellipse;whiteSpace=wrap;html=1;movable=1;resizable=1;rotatable=1;deletable=1;editable=1;connectable=1;" parent="443" vertex="1">
                        <mxGeometry x="185" y="372" width="98" height="22" as="geometry"/>
                    </mxCell>
                </UserObject>
                <mxCell id="88" style="edgeStyle=none;html=1;entryX=0;entryY=0.5;entryDx=0;entryDy=0;noEdgeStyle=1;orthogonal=1;exitX=1;exitY=0.5;exitDx=0;exitDy=0;movable=1;resizable=1;rotatable=1;deletable=1;editable=1;connectable=1;" parent="443" source="74" target="79" edge="1">
                    <mxGeometry relative="1" as="geometry">
                        <mxPoint x="680" y="50" as="sourcePoint"/>
                        <mxPoint x="766.9543035823069" y="18.692293023377715" as="targetPoint"/>
                        <Array as="points">
                            <mxPoint x="110" y="282"/>
                            <mxPoint x="148" y="383"/>
                        </Array>
                    </mxGeometry>
                </mxCell>
                <UserObject label="next_state" tooltip="checks if init_genrand has been called and if not, uses a default initial seed&#10;" id="92">
                    <mxCell style="ellipse;whiteSpace=wrap;html=1;movable=1;resizable=1;rotatable=1;deletable=1;editable=1;connectable=1;" parent="443" vertex="1">
                        <mxGeometry x="578" y="246.5" width="71" height="21" as="geometry"/>
                    </mxCell>
                </UserObject>
                <UserObject label="genrand_int32" tooltip="generates a random number on [0,0xffffffff]-interval; outputs the random number as an unsigned long" id="95">
                    <mxCell style="ellipse;whiteSpace=wrap;html=1;movable=1;resizable=1;rotatable=1;deletable=1;editable=1;connectable=1;" parent="443" vertex="1">
                        <mxGeometry x="398.5" y="194" width="98" height="22" as="geometry"/>
                    </mxCell>
                </UserObject>
                <mxCell id="96" style="edgeStyle=none;html=1;entryX=0.5;entryY=0;entryDx=0;entryDy=0;exitX=1;exitY=0.5;exitDx=0;exitDy=0;noEdgeStyle=1;orthogonal=1;movable=1;resizable=1;rotatable=1;deletable=1;editable=1;connectable=1;" parent="443" source="74" target="95" edge="1">
                    <mxGeometry relative="1" as="geometry">
                        <mxPoint x="610" y="110" as="sourcePoint"/>
                        <mxPoint x="706.9543035823069" y="188.69229302337772" as="targetPoint"/>
                        <Array as="points">
                            <mxPoint x="110" y="279"/>
                            <mxPoint x="110" y="82"/>
                            <mxPoint x="330" y="82"/>
                            <mxPoint x="360" y="180"/>
                            <mxPoint x="429" y="180"/>
                        </Array>
                    </mxGeometry>
                </mxCell>
                <mxCell id="99" value="" style="shape=flexArrow;endArrow=classic;html=1;exitX=1;exitY=0.5;exitDx=0;exitDy=0;fillColor=#60a917;strokeColor=#2D7600;fontStyle=0;noEdgeStyle=1;orthogonal=1;width=3;endWidth=5;endSize=4;entryX=0;entryY=0.5;entryDx=0;entryDy=0;movable=1;resizable=1;rotatable=1;deletable=1;editable=1;connectable=1;" parent="443" source="79" target="77" edge="1">
                    <mxGeometry width="50" height="50" relative="1" as="geometry">
                        <mxPoint x="580" y="170" as="sourcePoint"/>
                        <mxPoint x="630" y="180" as="targetPoint"/>
                        <Array as="points">
                            <mxPoint x="292" y="383"/>
                            <mxPoint x="366" y="259.75"/>
                        </Array>
                    </mxGeometry>
                </mxCell>
                <mxCell id="101" value="" style="shape=flexArrow;endArrow=classic;html=1;exitX=1;exitY=0.5;exitDx=0;exitDy=0;fillColor=#60a917;strokeColor=#2D7600;fontStyle=0;noEdgeStyle=1;orthogonal=1;width=3;endWidth=5;endSize=4;entryX=0;entryY=0.5;entryDx=0;entryDy=0;movable=1;resizable=1;rotatable=1;deletable=1;editable=1;connectable=1;" parent="443" source="95" target="92" edge="1">
                    <mxGeometry width="50" height="50" relative="1" as="geometry">
                        <mxPoint x="720" y="90" as="sourcePoint"/>
                        <mxPoint x="562" y="300" as="targetPoint"/>
                        <Array as="points">
                            <mxPoint x="510" y="205"/>
                            <mxPoint x="562" y="255.25"/>
                        </Array>
                    </mxGeometry>
                </mxCell>
                <mxCell id="106" style="edgeStyle=none;html=1;entryX=0;entryY=0.5;entryDx=0;entryDy=0;exitX=1;exitY=0.5;exitDx=0;exitDy=0;noEdgeStyle=1;orthogonal=1;movable=1;resizable=1;rotatable=1;deletable=1;editable=1;connectable=1;" parent="443" source="74" target="105" edge="1">
                    <mxGeometry relative="1" as="geometry">
                        <mxPoint x="550.0000000000002" y="130" as="sourcePoint"/>
                        <mxPoint x="586.9543035823069" y="278.6922930233777" as="targetPoint"/>
                        <Array as="points">
                            <mxPoint x="110" y="279"/>
                            <mxPoint x="148" y="11"/>
                        </Array>
                    </mxGeometry>
                </mxCell>
                <mxCell id="110" value="" style="shape=flexArrow;endArrow=classic;html=1;exitX=1;exitY=0.5;exitDx=0;exitDy=0;entryX=0;entryY=0.5;entryDx=0;entryDy=0;fillColor=#60a917;strokeColor=#2D7600;fontStyle=0;noEdgeStyle=1;orthogonal=1;width=3;endWidth=5;endSize=4;movable=1;resizable=1;rotatable=1;deletable=1;editable=1;connectable=1;" parent="443" source="105" target="92" edge="1">
                    <mxGeometry width="50" height="50" relative="1" as="geometry">
                        <mxPoint x="660" y="370" as="sourcePoint"/>
                        <mxPoint x="870" y="310" as="targetPoint"/>
                        <Array as="points">
                            <mxPoint x="292" y="11"/>
                            <mxPoint x="430" y="11"/>
                            <mxPoint x="528" y="112"/>
                            <mxPoint x="566" y="248.25"/>
                        </Array>
                    </mxGeometry>
                </mxCell>
                <UserObject label="genrand_real1" tooltip="generates a random number on [0,1]-real-interval; outputs the random number as a double" id="112">
                    <mxCell style="ellipse;whiteSpace=wrap;html=1;movable=1;resizable=1;rotatable=1;deletable=1;editable=1;connectable=1;" parent="443" vertex="1">
                        <mxGeometry x="398" y="142" width="98" height="22" as="geometry"/>
                    </mxCell>
                </UserObject>
                <mxCell id="113" style="edgeStyle=none;html=1;entryX=0;entryY=0.5;entryDx=0;entryDy=0;exitX=1;exitY=0.5;exitDx=0;exitDy=0;noEdgeStyle=1;orthogonal=1;movable=1;resizable=1;rotatable=1;deletable=1;editable=1;connectable=1;" parent="443" source="74" target="112" edge="1">
                    <mxGeometry relative="1" as="geometry">
                        <mxPoint x="510" y="130" as="sourcePoint"/>
                        <mxPoint x="506.9543035823069" y="368.6922930233777" as="targetPoint"/>
                        <Array as="points">
                            <mxPoint x="110" y="279"/>
                            <mxPoint x="110" y="52"/>
                            <mxPoint x="330" y="52"/>
                            <mxPoint x="368" y="153"/>
                        </Array>
                    </mxGeometry>
                </mxCell>
                <mxCell id="117" value="" style="shape=flexArrow;endArrow=classic;html=1;exitX=1;exitY=0.5;exitDx=0;exitDy=0;entryX=0;entryY=0.5;entryDx=0;entryDy=0;fillColor=#60a917;strokeColor=#2D7600;fontStyle=0;noEdgeStyle=1;orthogonal=1;width=3;endWidth=5;endSize=4;movable=1;resizable=1;rotatable=1;deletable=1;editable=1;connectable=1;" parent="443" source="112" target="92" edge="1">
                    <mxGeometry width="50" height="50" relative="1" as="geometry">
                        <mxPoint x="580" y="390" as="sourcePoint"/>
                        <mxPoint x="527.5735931288073" y="318.2842712474617" as="targetPoint"/>
                        <Array as="points">
                            <mxPoint x="510" y="153"/>
                            <mxPoint x="564" y="251.75"/>
                        </Array>
                    </mxGeometry>
                </mxCell>
                <UserObject label="genrand_real2" tooltip="generates a random number on [0,1)-real-interval; outputs the random number as a double" id="119">
                    <mxCell style="ellipse;whiteSpace=wrap;html=1;movable=1;resizable=1;rotatable=1;deletable=1;editable=1;connectable=1;" parent="443" vertex="1">
                        <mxGeometry x="398" y="350" width="98" height="22" as="geometry"/>
                    </mxCell>
                </UserObject>
                <mxCell id="120" style="edgeStyle=none;html=1;entryX=0;entryY=0.5;entryDx=0;entryDy=0;exitX=1;exitY=0.5;exitDx=0;exitDy=0;noEdgeStyle=1;orthogonal=1;movable=1;resizable=1;rotatable=1;deletable=1;editable=1;connectable=1;" parent="443" source="74" target="119" edge="1">
                    <mxGeometry relative="1" as="geometry">
                        <mxPoint x="630" y="650" as="sourcePoint"/>
                        <mxPoint x="466.9543035823069" y="978.6922930233777" as="targetPoint"/>
                        <Array as="points">
                            <mxPoint x="110" y="279"/>
                            <mxPoint x="110" y="484"/>
                            <mxPoint x="330" y="484"/>
                            <mxPoint x="368" y="361"/>
                        </Array>
                    </mxGeometry>
                </mxCell>
                <mxCell id="124" value="" style="shape=flexArrow;endArrow=classic;html=1;exitX=1;exitY=0.5;exitDx=0;exitDy=0;entryX=0;entryY=0.5;entryDx=0;entryDy=0;fillColor=#60a917;strokeColor=#2D7600;fontStyle=0;noEdgeStyle=1;orthogonal=1;width=3;endWidth=5;endSize=4;movable=1;resizable=1;rotatable=1;deletable=1;editable=1;connectable=1;" parent="443" source="119" target="92" edge="1">
                    <mxGeometry width="50" height="50" relative="1" as="geometry">
                        <mxPoint x="620" y="1000" as="sourcePoint"/>
                        <mxPoint x="710" y="810" as="targetPoint"/>
                        <Array as="points">
                            <mxPoint x="510" y="361"/>
                            <mxPoint x="564" y="262.25"/>
                        </Array>
                    </mxGeometry>
                </mxCell>
                <UserObject label="genrand_real3" tooltip="generates a random number on (0,1)-real-interval; outputs the random number as a double" id="126">
                    <mxCell style="ellipse;whiteSpace=wrap;html=1;movable=1;resizable=1;rotatable=1;deletable=1;editable=1;connectable=1;" parent="443" vertex="1">
                        <mxGeometry x="398" y="298" width="98" height="22" as="geometry"/>
                    </mxCell>
                </UserObject>
                <mxCell id="127" style="edgeStyle=none;html=1;entryX=0;entryY=0.5;entryDx=0;entryDy=0;exitX=1;exitY=0.5;exitDx=0;exitDy=0;noEdgeStyle=1;orthogonal=1;movable=1;resizable=1;rotatable=1;deletable=1;editable=1;connectable=1;" parent="443" source="74" target="126" edge="1">
                    <mxGeometry relative="1" as="geometry">
                        <mxPoint x="960" y="900" as="sourcePoint"/>
                        <mxPoint x="796.9543035823069" y="1228.6922930233777" as="targetPoint"/>
                        <Array as="points">
                            <mxPoint x="110" y="279"/>
                            <mxPoint x="110" y="454"/>
                            <mxPoint x="330" y="454"/>
                            <mxPoint x="368" y="309"/>
                        </Array>
                    </mxGeometry>
                </mxCell>
                <mxCell id="131" value="" style="shape=flexArrow;endArrow=classic;html=1;exitX=1;exitY=0.5;exitDx=0;exitDy=0;entryX=0;entryY=0.5;entryDx=0;entryDy=0;fillColor=#60a917;strokeColor=#2D7600;fontStyle=0;noEdgeStyle=1;orthogonal=1;width=3;endWidth=5;endSize=4;movable=1;resizable=1;rotatable=1;deletable=1;editable=1;connectable=1;" parent="443" source="126" target="92" edge="1">
                    <mxGeometry width="50" height="50" relative="1" as="geometry">
                        <mxPoint x="950" y="1250" as="sourcePoint"/>
                        <mxPoint x="1040" y="1060" as="targetPoint"/>
                        <Array as="points">
                            <mxPoint x="510" y="309"/>
                            <mxPoint x="562" y="258.75"/>
                        </Array>
                    </mxGeometry>
                </mxCell>
                <UserObject label="genrand_res53" tooltip="generates a random number on [0,1) with 53-bit resolution; outputs the random number as a double" id="133">
                    <mxCell style="ellipse;whiteSpace=wrap;html=1;movable=1;resizable=1;rotatable=1;deletable=1;editable=1;connectable=1;" parent="443" vertex="1">
                        <mxGeometry x="185" y="112" width="98" height="22" as="geometry"/>
                    </mxCell>
                </UserObject>
                <mxCell id="136" value="" style="shape=flexArrow;endArrow=classic;html=1;exitX=1;exitY=0.5;exitDx=0;exitDy=0;fillColor=#60a917;strokeColor=#2D7600;fontStyle=0;noEdgeStyle=1;orthogonal=1;width=3;endWidth=5;endSize=4;entryX=0;entryY=0.5;entryDx=0;entryDy=0;movable=1;resizable=1;rotatable=1;deletable=1;editable=1;connectable=1;" parent="443" source="133" target="95" edge="1">
                    <mxGeometry width="50" height="50" relative="1" as="geometry">
                        <mxPoint x="510" y="470" as="sourcePoint"/>
                        <mxPoint x="370" y="202" as="targetPoint"/>
                        <Array as="points">
                            <mxPoint x="292" y="123"/>
                            <mxPoint x="366" y="202.25"/>
                        </Array>
                    </mxGeometry>
                </mxCell>
                <mxCell id="138" style="edgeStyle=none;html=1;entryX=0;entryY=0.5;entryDx=0;entryDy=0;exitX=1;exitY=0.5;exitDx=0;exitDy=0;noEdgeStyle=1;orthogonal=1;movable=1;resizable=1;rotatable=1;deletable=1;editable=1;connectable=1;" parent="443" source="74" target="133" edge="1">
                    <mxGeometry relative="1" as="geometry">
                        <mxPoint x="650" y="170" as="sourcePoint"/>
                        <mxPoint x="450" y="510" as="targetPoint"/>
                        <Array as="points">
                            <mxPoint x="110" y="274"/>
                            <mxPoint x="148" y="123"/>
                        </Array>
                    </mxGeometry>
                </mxCell>
                <UserObject label="RanInit" tooltip="initialization; reads and writes to ISEED file; &#10;input is int repeatable" id="140">
                    <mxCell style="ellipse;whiteSpace=wrap;html=1;movable=1;resizable=1;rotatable=1;deletable=1;editable=1;connectable=1;" parent="443" vertex="1">
                        <mxGeometry x="194.5" y="164" width="79" height="22" as="geometry"/>
                    </mxCell>
                </UserObject>
                <mxCell id="141" style="edgeStyle=none;html=1;entryX=0;entryY=0.5;entryDx=0;entryDy=0;exitX=1;exitY=0.5;exitDx=0;exitDy=0;noEdgeStyle=1;orthogonal=1;movable=1;resizable=1;rotatable=1;deletable=1;editable=1;connectable=1;" parent="443" source="74" target="140" edge="1">
                    <mxGeometry relative="1" as="geometry">
                        <mxPoint x="450" y="69.99999999999977" as="sourcePoint"/>
                        <mxPoint x="320" y="510" as="targetPoint"/>
                        <Array as="points">
                            <mxPoint x="110" y="276"/>
                            <mxPoint x="148" y="175"/>
                        </Array>
                    </mxGeometry>
                </mxCell>
                <mxCell id="145" value="" style="shape=flexArrow;endArrow=classic;html=1;exitX=1;exitY=0.5;exitDx=0;exitDy=0;fillColor=#60a917;strokeColor=#2D7600;fontStyle=0;noEdgeStyle=1;orthogonal=1;width=3;endWidth=5;endSize=4;entryX=0;entryY=0.5;entryDx=0;entryDy=0;movable=1;resizable=1;rotatable=1;deletable=1;editable=1;connectable=1;" parent="443" source="140" target="95" edge="1">
                    <mxGeometry width="50" height="50" relative="1" as="geometry">
                        <mxPoint x="430.0000000000034" y="600" as="sourcePoint"/>
                        <mxPoint x="350" y="208" as="targetPoint"/>
                        <Array as="points">
                            <mxPoint x="292" y="169.5"/>
                            <mxPoint x="366" y="207.75"/>
                        </Array>
                    </mxGeometry>
                </mxCell>
                <mxCell id="147" value="" style="shape=flexArrow;endArrow=classic;html=1;exitX=1;exitY=0.5;exitDx=0;exitDy=0;fillColor=#60a917;strokeColor=#2D7600;fontStyle=0;noEdgeStyle=1;orthogonal=1;width=3;endWidth=5;endSize=4;movable=1;resizable=1;rotatable=1;deletable=1;editable=1;connectable=1;entryX=0;entryY=0.5;entryDx=0;entryDy=0;" parent="443" source="140" target="77" edge="1">
                    <mxGeometry width="50" height="50" relative="1" as="geometry">
                        <mxPoint x="440.0000000000034" y="610" as="sourcePoint"/>
                        <mxPoint x="380" y="257" as="targetPoint"/>
                        <Array as="points">
                            <mxPoint x="292" y="180.5"/>
                            <mxPoint x="368" y="248.75"/>
                        </Array>
                    </mxGeometry>
                </mxCell>
                <UserObject label="RanInitReturnIseed" tooltip="initialization; reads and writes to ISEED file; outputs the random number as a long;&#10;input is int repeatable" id="149">
                    <mxCell style="ellipse;whiteSpace=wrap;html=1;movable=1;resizable=1;rotatable=1;deletable=1;editable=1;connectable=1;" parent="443" vertex="1">
                        <mxGeometry x="174" y="216" width="120" height="22" as="geometry"/>
                    </mxCell>
                </UserObject>
                <mxCell id="150" style="edgeStyle=none;html=1;entryX=0;entryY=0.5;entryDx=0;entryDy=0;exitX=1;exitY=0.5;exitDx=0;exitDy=0;noEdgeStyle=1;orthogonal=1;movable=1;resizable=1;rotatable=1;deletable=1;editable=1;connectable=1;" parent="443" source="74" target="149" edge="1">
                    <mxGeometry relative="1" as="geometry">
                        <mxPoint x="520" y="241.7199999999998" as="sourcePoint"/>
                        <mxPoint x="260" y="681.72" as="targetPoint"/>
                        <Array as="points">
                            <mxPoint x="110" y="277"/>
                            <mxPoint x="148" y="227"/>
                        </Array>
                    </mxGeometry>
                </mxCell>
                <mxCell id="154" value="" style="shape=flexArrow;endArrow=classic;html=1;exitX=1;exitY=0.5;exitDx=0;exitDy=0;fillColor=#60a917;strokeColor=#2D7600;fontStyle=0;entryX=0;entryY=0.5;entryDx=0;entryDy=0;noEdgeStyle=1;orthogonal=1;endWidth=5;endSize=4;width=3;movable=1;resizable=1;rotatable=1;deletable=1;editable=1;connectable=1;" parent="443" source="149" target="95" edge="1">
                    <mxGeometry width="50" height="50" relative="1" as="geometry">
                        <mxPoint x="370.0000000000034" y="771.72" as="sourcePoint"/>
                        <mxPoint x="707.5735931288073" y="505.0042712474617" as="targetPoint"/>
                        <Array as="points">
                            <mxPoint x="292" y="221.5"/>
                            <mxPoint x="368" y="213.25"/>
                        </Array>
                    </mxGeometry>
                </mxCell>
                <mxCell id="156" value="" style="shape=flexArrow;endArrow=classic;html=1;exitX=1;exitY=0.5;exitDx=0;exitDy=0;fillColor=#60a917;strokeColor=#2D7600;fontStyle=0;entryX=0;entryY=0.5;entryDx=0;entryDy=0;noEdgeStyle=1;orthogonal=1;width=3;endWidth=5;endSize=4;movable=1;resizable=1;rotatable=1;deletable=1;editable=1;connectable=1;" parent="443" source="149" target="77" edge="1">
                    <mxGeometry width="50" height="50" relative="1" as="geometry">
                        <mxPoint x="380.0000000000034" y="781.72" as="sourcePoint"/>
                        <mxPoint x="707.5735931288073" y="190.0042712474617" as="targetPoint"/>
                        <Array as="points">
                            <mxPoint x="292" y="232.5"/>
                            <mxPoint x="366" y="254.25"/>
                        </Array>
                    </mxGeometry>
                </mxCell>
                <UserObject label="printState" tooltip="write the state array to a file (stateFile) for resuming later;&#10;input is char *stateFile" id="160">
                    <mxCell style="ellipse;whiteSpace=wrap;html=1;movable=1;resizable=1;rotatable=1;deletable=1;editable=1;connectable=1;" parent="443" vertex="1">
                        <mxGeometry x="185" y="320" width="98" height="22" as="geometry"/>
                    </mxCell>
                </UserObject>
                <mxCell id="161" style="edgeStyle=none;html=1;entryX=0;entryY=0.5;entryDx=0;entryDy=0;exitX=1;exitY=0.5;exitDx=0;exitDy=0;noEdgeStyle=1;orthogonal=1;movable=1;resizable=1;rotatable=1;deletable=1;editable=1;connectable=1;" parent="443" source="74" target="160" edge="1">
                    <mxGeometry relative="1" as="geometry">
                        <mxPoint x="680" y="49.99999999999977" as="sourcePoint"/>
                        <mxPoint x="660" y="-70.00000000000023" as="targetPoint"/>
                        <Array as="points">
                            <mxPoint x="110" y="281"/>
                            <mxPoint x="148" y="331"/>
                        </Array>
                    </mxGeometry>
                </mxCell>
                <UserObject label="loadState" tooltip="get state array from a file;&#10;input is char *stateFile" id="166">
                    <mxCell style="ellipse;whiteSpace=wrap;html=1;movable=1;resizable=1;rotatable=1;deletable=1;editable=1;connectable=1;" parent="443" vertex="1">
                        <mxGeometry x="191.5" y="268" width="85" height="22" as="geometry"/>
                    </mxCell>
                </UserObject>
                <mxCell id="170" style="edgeStyle=none;html=1;entryX=0;entryY=0.5;entryDx=0;entryDy=0;exitX=1;exitY=0.5;exitDx=0;exitDy=0;noEdgeStyle=1;orthogonal=1;movable=1;resizable=1;rotatable=1;deletable=1;editable=1;connectable=1;" parent="443" source="74" target="166" edge="1">
                    <mxGeometry relative="1" as="geometry">
                        <mxPoint x="620" y="19.999999999999773" as="sourcePoint"/>
                        <mxPoint x="560" y="-20.000000000000227" as="targetPoint"/>
                        <Array as="points">
                            <mxPoint x="84" y="279.00000000000006"/>
                            <mxPoint x="148" y="279"/>
                        </Array>
                    </mxGeometry>
                </mxCell>
                <UserObject label="genrand_int31" tooltip="generates a random number on [0,0x7fffffff]-interval; outputs the random number as a long" id="105">
                    <mxCell style="ellipse;whiteSpace=wrap;html=1;movable=1;resizable=1;rotatable=1;deletable=1;editable=1;connectable=1;" parent="443" vertex="1">
                        <mxGeometry x="185" width="98" height="22" as="geometry"/>
                    </mxCell>
                </UserObject>
                <mxCell id="211" style="edgeStyle=none;html=1;entryX=0.5;entryY=1;entryDx=0;entryDy=0;exitX=1;exitY=0.5;exitDx=0;exitDy=0;noEdgeStyle=1;orthogonal=1;movable=1;resizable=1;rotatable=1;deletable=1;editable=1;connectable=1;" parent="443" source="74" target="92" edge="1">
                    <mxGeometry relative="1" as="geometry">
                        <mxPoint x="69.99999999999977" y="289" as="sourcePoint"/>
                        <mxPoint x="389.99999999999727" y="371" as="targetPoint"/>
                        <Array as="points">
                            <mxPoint x="110" y="279"/>
                            <mxPoint x="120" y="494"/>
                            <mxPoint x="340" y="494"/>
                            <mxPoint x="600" y="490"/>
                        </Array>
                    </mxGeometry>
                </mxCell>
                <mxCell id="448" style="edgeStyle=none;html=1;entryX=1;entryY=0.5;entryDx=0;entryDy=0;exitX=0;exitY=0.5;exitDx=0;exitDy=0;noEdgeStyle=1;orthogonal=1;entryPerimeter=0;startArrow=none;" parent="1" source="406" target="221" edge="1">
                    <mxGeometry relative="1" as="geometry">
                        <mxPoint x="-19.9999999999975" y="181" as="sourcePoint"/>
                        <mxPoint x="-541" y="280" as="targetPoint"/>
                        <Array as="points">
                            <mxPoint x="-660" y="49"/>
                            <mxPoint x="-660" y="312"/>
                        </Array>
                    </mxGeometry>
                </mxCell>
                <mxCell id="449" style="edgeStyle=none;html=1;noEdgeStyle=1;orthogonal=1;movable=1;resizable=1;rotatable=1;deletable=1;editable=1;connectable=1;fillColor=#D98DF7;strokeColor=#B266FF;strokeWidth=2;exitX=0;exitY=0;exitDx=54.87007874015748;exitDy=0;exitPerimeter=0;entryX=0.5;entryY=0;entryDx=0;entryDy=0;entryPerimeter=0;" parent="1" source="259" target="262" edge="1">
                    <mxGeometry relative="1" as="geometry">
                        <mxPoint x="-280" y="80" as="sourcePoint"/>
                        <mxPoint x="-130" y="130" as="targetPoint"/>
                        <Array as="points">
                            <mxPoint x="-806" y="10"/>
                            <mxPoint x="-1080" y="10"/>
                            <mxPoint x="-1080" y="420"/>
                            <mxPoint x="-1032" y="420"/>
                        </Array>
                    </mxGeometry>
                </mxCell>
                <UserObject label="parameters.txt" tooltip="sets a variety of parameters (including files) to variables&#10;" id="262">
                    <mxCell style="shape=note;whiteSpace=wrap;html=1;backgroundOutline=1;darkOpacity=0.05;size=22;labelPosition=center;verticalLabelPosition=middle;align=center;verticalAlign=middle;" parent="1" vertex="1">
                        <mxGeometry x="-1097" y="448" width="130" height="38" as="geometry"/>
                    </mxCell>
                </UserObject>
                <UserObject label="metropolisJoint.c" tooltip="contains functions for running metropolis algorithm and supporting functions" id="360">
                    <mxCell style="rounded=0;whiteSpace=wrap;html=1;" parent="1" vertex="1">
                        <mxGeometry x="-212" y="930" width="120" height="20" as="geometry"/>
                    </mxCell>
                </UserObject>
                <UserObject label="initializeSummary" tooltip="initalizes summary variables&#10;" id="214">
                    <mxCell style="ellipse;whiteSpace=wrap;html=1;" parent="1" vertex="1">
                        <mxGeometry x="-507" y="389" width="120" height="22" as="geometry"/>
                    </mxCell>
                </UserObject>
                <UserObject label="rotate" tooltip="rotates the orthogonal vectors tIn, e1In and e2In by angles (phiHere, thetaHere, psiHere) in their own frame of reference;                     input is double *tIn, double *e1In, double *e2In, double *tOut, double *e1Out, double *e2Out, double phiHere, double thetaHere,double psiHere&#10;&#10;&#10;" id="377">
                    <mxCell style="ellipse;whiteSpace=wrap;html=1;" parent="1" vertex="1">
                        <mxGeometry x="-502" y="915" width="120" height="22" as="geometry"/>
                    </mxCell>
                </UserObject>
                <UserObject label="getParameters" tooltip="Reads file given in argv[1] (parameters.txt) and prints them in command line&#10;" id="256">
                    <mxCell style="ellipse;whiteSpace=wrap;html=1;" parent="1" vertex="1">
                        <mxGeometry x="-507" y="91" width="120" height="22" as="geometry"/>
                    </mxCell>
                </UserObject>
                <mxCell id="460" value="" style="shape=flexArrow;endArrow=classic;html=1;fillColor=#60a917;strokeColor=#2D7600;fontStyle=0;noEdgeStyle=1;orthogonal=1;endWidth=5;endSize=4;width=3;entryX=0.5;entryY=1;entryDx=0;entryDy=0;exitX=0.5;exitY=1;exitDx=0;exitDy=0;" parent="1" source="374" target="223" edge="1">
                    <mxGeometry width="50" height="50" relative="1" as="geometry">
                        <mxPoint x="-508" y="870" as="sourcePoint"/>
                        <mxPoint x="-508" y="271" as="targetPoint"/>
                        <Array as="points">
                            <mxPoint x="-518" y="880"/>
                            <mxPoint x="-622" y="880"/>
                            <mxPoint x="-622" y="370"/>
                        </Array>
                    </mxGeometry>
                </mxCell>
                <mxCell id="462" style="edgeStyle=none;html=1;entryX=1;entryY=0.5;entryDx=0;entryDy=0;exitX=0;exitY=0;exitDx=130;exitDy=22;noEdgeStyle=1;orthogonal=1;exitPerimeter=0;entryPerimeter=0;" parent="1" source="262" target="235" edge="1">
                    <mxGeometry relative="1" as="geometry">
                        <mxPoint x="-1110" y="452" as="sourcePoint"/>
                        <mxPoint x="-811" y="200" as="targetPoint"/>
                        <Array as="points">
                            <mxPoint x="-690" y="470"/>
                            <mxPoint x="-690" y="150"/>
                        </Array>
                    </mxGeometry>
                </mxCell>
                <mxCell id="463" style="edgeStyle=none;html=1;entryX=1;entryY=0.5;entryDx=0;entryDy=0;exitX=0;exitY=0;exitDx=130;exitDy=22;noEdgeStyle=1;orthogonal=1;exitPerimeter=0;entryPerimeter=0;" parent="1" source="262" target="225" edge="1">
                    <mxGeometry relative="1" as="geometry">
                        <mxPoint x="-1110" y="452" as="sourcePoint"/>
                        <mxPoint x="-774" y="160" as="targetPoint"/>
                        <Array as="points">
                            <mxPoint x="-690" y="470"/>
                            <mxPoint x="-690" y="110"/>
                        </Array>
                    </mxGeometry>
                </mxCell>
                <mxCell id="469" value="getParameters" parent="0" visible="0"/>
                <mxCell id="258" value="" style="shape=flexArrow;endArrow=classic;html=1;fillColor=none;strokeColor=#006EAF;strokeWidth=2;width=2;startSize=4;endSize=2.7518518518518515;exitX=0;exitY=0.5;exitDx=0;exitDy=0;endWidth=7.777777777777778;entryX=0;entryY=0;entryDx=101;entryDy=20;entryPerimeter=0;" parent="469" source="256" target="259" edge="1">
                    <mxGeometry width="50" height="50" relative="1" as="geometry">
                        <mxPoint x="494.99999999999864" y="1286" as="sourcePoint"/>
                        <mxPoint x="585" y="1366" as="targetPoint"/>
                        <Array as="points">
                            <mxPoint x="-640" y="100"/>
                            <mxPoint x="-740" y="100"/>
                        </Array>
                    </mxGeometry>
                </mxCell>
                <mxCell id="470" value="dataRecording" parent="0" visible="0"/>
                <mxCell id="424" value="" style="shape=flexArrow;endArrow=classic;html=1;fillColor=none;strokeColor=#006EAF;strokeWidth=2;width=2;startSize=4;endSize=2.7518518518518515;exitX=0;exitY=0.5;exitDx=0;exitDy=0;endWidth=7.777777777777778;entryX=0;entryY=0;entryDx=50;entryDy=20;entryPerimeter=0;" parent="470" source="246" target="225" edge="1">
                    <mxGeometry width="50" height="50" relative="1" as="geometry">
                        <mxPoint x="527.499999999998" y="804" as="sourcePoint"/>
                        <mxPoint x="-840" y="130" as="targetPoint"/>
                    </mxGeometry>
                </mxCell>
                <mxCell id="251" value="" style="shape=flexArrow;endArrow=classic;html=1;fillColor=none;strokeColor=#006EAF;strokeWidth=2;width=2;startSize=4;endSize=2.7518518518518515;exitX=0;exitY=0.5;exitDx=0;exitDy=0;endWidth=7.777777777777778;entryX=0;entryY=0;entryDx=67;entryDy=20;entryPerimeter=0;" parent="470" source="246" target="235" edge="1">
                    <mxGeometry width="50" height="50" relative="1" as="geometry">
                        <mxPoint x="527.4999999999995" y="804" as="sourcePoint"/>
                        <mxPoint x="-780" y="170" as="targetPoint"/>
                    </mxGeometry>
                </mxCell>
                <mxCell id="465" value="" style="shape=flexArrow;endArrow=classic;html=1;fillColor=none;strokeColor=#006EAF;strokeWidth=2;width=2;startSize=4;endSize=2.7518518518518515;exitX=0;exitY=0.5;exitDx=0;exitDy=0;endWidth=7.777777777777778;entryX=0;entryY=0;entryDx=30;entryDy=20;entryPerimeter=0;" parent="470" source="246" target="217" edge="1">
                    <mxGeometry width="50" height="50" relative="1" as="geometry">
                        <mxPoint x="-196.00000000000182" y="335.0000000000001" as="sourcePoint"/>
                        <mxPoint x="-830" y="200" as="targetPoint"/>
                    </mxGeometry>
                </mxCell>
                <mxCell id="252" value="" style="shape=flexArrow;endArrow=classic;html=1;fillColor=none;strokeColor=#006EAF;strokeWidth=2;width=2;startSize=4;endSize=2.7518518518518515;exitX=0;exitY=0.5;exitDx=0;exitDy=0;entryX=1;entryY=0.5;entryDx=0;entryDy=0;entryPerimeter=0;endWidth=7.777777777777778;" parent="470" source="246" target="237" edge="1">
                    <mxGeometry width="50" height="50" relative="1" as="geometry">
                        <mxPoint x="537.4999999999995" y="814" as="sourcePoint"/>
                        <mxPoint x="647.9999999999998" y="1053" as="targetPoint"/>
                    </mxGeometry>
                </mxCell>
                <mxCell id="471" value="initializeSummary" parent="0" visible="0"/>
                <mxCell id="219" value="" style="shape=flexArrow;endArrow=classic;html=1;fillColor=none;strokeColor=#006EAF;strokeWidth=2;width=2;startSize=4;endSize=2.7518518518518515;exitX=0;exitY=0.5;exitDx=0;exitDy=0;entryX=0;entryY=0;entryDx=30;entryDy=20;entryPerimeter=0;endWidth=7.777777777777778;" parent="471" source="214" target="217" edge="1">
                    <mxGeometry width="50" height="50" relative="1" as="geometry">
                        <mxPoint x="70" y="633" as="sourcePoint"/>
                        <mxPoint x="120" y="583" as="targetPoint"/>
                    </mxGeometry>
                </mxCell>
                <mxCell id="222" value="" style="shape=flexArrow;endArrow=classic;html=1;fillColor=none;strokeColor=#006EAF;strokeWidth=2;width=2;startSize=4;endSize=2.7518518518518515;exitX=0;exitY=0.5;exitDx=0;exitDy=0;endWidth=7.777777777777778;entryX=0;entryY=0;entryDx=107;entryDy=20;entryPerimeter=0;" parent="471" source="214" target="221" edge="1">
                    <mxGeometry width="50" height="50" relative="1" as="geometry">
                        <mxPoint x="60" y="545" as="sourcePoint"/>
                        <mxPoint x="-220" y="1943" as="targetPoint"/>
                    </mxGeometry>
                </mxCell>
                <mxCell id="472" value="finalizeSummary" parent="0" visible="0"/>
                <mxCell id="241" value="" style="shape=flexArrow;endArrow=classic;html=1;fillColor=none;strokeColor=#006EAF;strokeWidth=2;width=2;startSize=4;endSize=2.7518518518518515;entryX=0;entryY=0;entryDx=50;entryDy=20;entryPerimeter=0;endWidth=7.777777777777778;startArrow=none;exitX=0;exitY=0.5;exitDx=0;exitDy=0;" parent="472" source="223" target="233" edge="1">
                    <mxGeometry width="50" height="50" relative="1" as="geometry">
                        <mxPoint x="-730" y="480" as="sourcePoint"/>
                        <mxPoint x="678.5" y="803" as="targetPoint"/>
                    </mxGeometry>
                </mxCell>
                <mxCell id="243" value="" style="shape=flexArrow;endArrow=classic;html=1;fillColor=none;strokeColor=#006EAF;strokeWidth=2;width=2;startSize=4;endSize=2.7518518518518515;exitX=0;exitY=0.5;exitDx=0;exitDy=0;entryX=0;entryY=0;entryDx=67;entryDy=20;entryPerimeter=0;endWidth=7.777777777777778;" parent="472" source="223" target="235" edge="1">
                    <mxGeometry width="50" height="50" relative="1" as="geometry">
                        <mxPoint x="589.9999999999993" y="764" as="sourcePoint"/>
                        <mxPoint x="698.5" y="823" as="targetPoint"/>
                    </mxGeometry>
                </mxCell>
                <mxCell id="244" value="" style="shape=flexArrow;endArrow=classic;html=1;fillColor=none;strokeColor=#006EAF;strokeWidth=2;width=2;startSize=4;endSize=2.7518518518518515;exitX=0;exitY=0.5;exitDx=0;exitDy=0;entryX=1;entryY=0.5;entryDx=0;entryDy=0;entryPerimeter=0;endWidth=7.777777777777778;" parent="472" source="223" target="236" edge="1">
                    <mxGeometry width="50" height="50" relative="1" as="geometry">
                        <mxPoint x="599.9999999999993" y="774" as="sourcePoint"/>
                        <mxPoint x="708.5" y="833" as="targetPoint"/>
                    </mxGeometry>
                </mxCell>
                <mxCell id="242" value="" style="shape=flexArrow;endArrow=classic;html=1;fillColor=none;strokeColor=#006EAF;strokeWidth=2;width=2;startSize=4;endSize=2.7518518518518515;exitX=0;exitY=0.5;exitDx=0;exitDy=0;entryX=1;entryY=0.5;entryDx=0;entryDy=0;entryPerimeter=0;endWidth=7.777777777777778;" parent="472" source="223" target="234" edge="1">
                    <mxGeometry width="50" height="50" relative="1" as="geometry">
                        <mxPoint x="579.9999999999993" y="754" as="sourcePoint"/>
                        <mxPoint x="688.5" y="813" as="targetPoint"/>
                    </mxGeometry>
                </mxCell>
                <mxCell id="239" value="" style="shape=flexArrow;endArrow=classic;html=1;fillColor=none;strokeColor=#006EAF;strokeWidth=2;width=2;startSize=4;endSize=2.7518518518518515;exitX=0;exitY=0.5;exitDx=0;exitDy=0;endWidth=7.777777777777778;entryX=1;entryY=0.5;entryDx=0;entryDy=0;entryPerimeter=0;" parent="472" source="223" target="231" edge="1">
                    <mxGeometry width="50" height="50" relative="1" as="geometry">
                        <mxPoint x="549.9999999999993" y="724" as="sourcePoint"/>
                        <mxPoint x="-830" y="938" as="targetPoint"/>
                    </mxGeometry>
                </mxCell>
                <mxCell id="245" value="" style="shape=flexArrow;endArrow=classic;html=1;fillColor=none;strokeColor=#006EAF;strokeWidth=2;width=2;startSize=4;endSize=2.7518518518518515;exitX=0;exitY=0.5;exitDx=0;exitDy=0;entryX=1;entryY=0.5;entryDx=0;entryDy=0;entryPerimeter=0;endWidth=7.777777777777778;" parent="472" source="223" target="237" edge="1">
                    <mxGeometry width="50" height="50" relative="1" as="geometry">
                        <mxPoint x="609.9999999999993" y="784" as="sourcePoint"/>
                        <mxPoint x="718.5" y="843" as="targetPoint"/>
                    </mxGeometry>
                </mxCell>
                <mxCell id="240" value="" style="shape=flexArrow;endArrow=classic;html=1;fillColor=none;strokeColor=#006EAF;strokeWidth=2;width=2;startSize=4;endSize=2.7518518518518515;exitX=0;exitY=0.5;exitDx=0;exitDy=0;endWidth=7.777777777777778;entryX=0;entryY=0;entryDx=42;entryDy=20;entryPerimeter=0;" parent="472" source="223" target="232" edge="1">
                    <mxGeometry width="50" height="50" relative="1" as="geometry">
                        <mxPoint x="559.9999999999993" y="734" as="sourcePoint"/>
                        <mxPoint x="-770" y="370" as="targetPoint"/>
                    </mxGeometry>
                </mxCell>
                <mxCell id="227" value="" style="shape=flexArrow;endArrow=classic;html=1;fillColor=none;strokeColor=#006EAF;strokeWidth=2;width=2;startSize=4;endSize=2.7518518518518515;exitX=0;exitY=0.5;exitDx=0;exitDy=0;endWidth=7.777777777777778;entryX=0;entryY=0;entryDx=30;entryDy=20;entryPerimeter=0;" parent="472" source="223" target="217" edge="1">
                    <mxGeometry width="50" height="50" relative="1" as="geometry">
                        <mxPoint x="549.9999999999995" y="664" as="sourcePoint"/>
                        <mxPoint x="-830" y="200" as="targetPoint"/>
                    </mxGeometry>
                </mxCell>
                <mxCell id="226" value="" style="shape=flexArrow;endArrow=classic;html=1;fillColor=none;strokeColor=#006EAF;strokeWidth=2;width=2;startSize=4;endSize=2.7518518518518515;exitX=0;exitY=0.5;exitDx=0;exitDy=0;entryX=0;entryY=0;entryDx=50;entryDy=20;entryPerimeter=0;endWidth=7.777777777777778;" parent="472" source="223" target="225" edge="1">
                    <mxGeometry width="50" height="50" relative="1" as="geometry">
                        <mxPoint x="539.9999999999995" y="654" as="sourcePoint"/>
                        <mxPoint x="620" y="643" as="targetPoint"/>
                    </mxGeometry>
                </mxCell>
                <mxCell id="238" value="" style="shape=flexArrow;endArrow=classic;html=1;fillColor=none;strokeColor=#006EAF;strokeWidth=2;width=2;startSize=4;endSize=2.7518518518518515;exitX=0;exitY=0.5;exitDx=0;exitDy=0;endWidth=7.777777777777778;entryX=1;entryY=0.5;entryDx=0;entryDy=0;entryPerimeter=0;" parent="472" source="223" target="230" edge="1">
                    <mxGeometry width="50" height="50" relative="1" as="geometry">
                        <mxPoint x="539.9999999999993" y="714" as="sourcePoint"/>
                        <mxPoint x="-920" y="1460" as="targetPoint"/>
                    </mxGeometry>
                </mxCell>
                <mxCell id="229" value="" style="shape=flexArrow;endArrow=classic;html=1;fillColor=none;strokeColor=#006EAF;strokeWidth=2;width=2;startSize=4;endSize=2.7518518518518515;exitX=0;exitY=0.5;exitDx=0;exitDy=0;entryX=1;entryY=0.5;entryDx=0;entryDy=0;entryPerimeter=0;endWidth=7.777777777777778;" parent="472" source="223" target="228" edge="1">
                    <mxGeometry width="50" height="50" relative="1" as="geometry">
                        <mxPoint x="539.9999999999966" y="714" as="sourcePoint"/>
                        <mxPoint x="648.5" y="743" as="targetPoint"/>
                    </mxGeometry>
                </mxCell>
                <mxCell id="473" value="getSites" parent="0" visible="0"/>
                <mxCell id="466" value="" style="shape=flexArrow;endArrow=classic;html=1;fillColor=none;strokeColor=#006EAF;strokeWidth=2;width=2;startSize=4;endSize=2.7518518518518515;exitX=0;exitY=0.5;exitDx=0;exitDy=0;endWidth=7.777777777777778;entryX=0;entryY=0;entryDx=60;entryDy=20;entryPerimeter=0;" parent="473" source="338" target="302" edge="1">
                    <mxGeometry width="50" height="50" relative="1" as="geometry">
                        <mxPoint x="-125.00000000000205" y="485" as="sourcePoint"/>
                        <mxPoint x="-822.0000000000001" y="210" as="targetPoint"/>
                    </mxGeometry>
                </mxCell>
                <mxCell id="340" value="" style="shape=flexArrow;endArrow=classic;html=1;fillColor=none;strokeColor=#006EAF;strokeWidth=2;width=2;startSize=4;endSize=2.7518518518518515;exitX=0;exitY=0.5;exitDx=0;exitDy=0;endWidth=7.777777777777778;entryX=0;entryY=0;entryDx=30;entryDy=20;entryPerimeter=0;" parent="473" source="338" target="217" edge="1">
                    <mxGeometry width="50" height="50" relative="1" as="geometry">
                        <mxPoint x="539.9999999999968" y="1154" as="sourcePoint"/>
                        <mxPoint x="-840" y="210" as="targetPoint"/>
                    </mxGeometry>
                </mxCell>
                <mxCell id="342" value="" style="shape=flexArrow;endArrow=classic;html=1;fillColor=none;strokeColor=#006EAF;strokeWidth=2;width=2;startSize=4;endSize=2.7518518518518515;endWidth=7.777777777777778;exitX=0;exitY=0.5;exitDx=0;exitDy=0;entryX=1;entryY=0.5;entryDx=0;entryDy=0;entryPerimeter=0;" parent="473" source="338" target="272" edge="1">
                    <mxGeometry width="50" height="50" relative="1" as="geometry">
                        <mxPoint x="530" y="1223" as="sourcePoint"/>
                        <mxPoint x="-810" y="600" as="targetPoint"/>
                    </mxGeometry>
                </mxCell>
                <mxCell id="344" value="" style="shape=flexArrow;endArrow=classic;html=1;fillColor=none;strokeColor=#006EAF;strokeWidth=2;width=2;startSize=4;endSize=2.7518518518518515;exitX=0;exitY=0.5;exitDx=0;exitDy=0;endWidth=7.777777777777778;entryX=1;entryY=0.5;entryDx=0;entryDy=0;entryPerimeter=0;" parent="473" source="338" target="296" edge="1">
                    <mxGeometry width="50" height="50" relative="1" as="geometry">
                        <mxPoint x="569.9999999999991" y="1264.5" as="sourcePoint"/>
                        <mxPoint x="1596.8333333333335" y="453.0000000000001" as="targetPoint"/>
                    </mxGeometry>
                </mxCell>
                <mxCell id="343" value="" style="shape=flexArrow;endArrow=classic;html=1;fillColor=none;strokeColor=#006EAF;strokeWidth=2;width=2;startSize=4;endSize=2.7518518518518515;exitX=0;exitY=0.5;exitDx=0;exitDy=0;endWidth=7.777777777777778;entryX=1;entryY=0.5;entryDx=0;entryDy=0;entryPerimeter=0;" parent="473" source="338" target="292" edge="1">
                    <mxGeometry width="50" height="50" relative="1" as="geometry">
                        <mxPoint x="559.9999999999991" y="1254.5" as="sourcePoint"/>
                        <mxPoint x="1603.0958333333333" y="203" as="targetPoint"/>
                    </mxGeometry>
                </mxCell>
                <mxCell id="341" value="" style="shape=flexArrow;endArrow=classic;html=1;fillColor=none;strokeColor=#006EAF;strokeWidth=2;width=2;startSize=4;endSize=2.7518518518518515;exitX=0;exitY=0.5;exitDx=0;exitDy=0;endWidth=7.777777777777778;entryX=1;entryY=0.5;entryDx=0;entryDy=0;entryPerimeter=0;" parent="473" source="338" target="264" edge="1">
                    <mxGeometry width="50" height="50" relative="1" as="geometry">
                        <mxPoint x="539.9999999999991" y="1234.5" as="sourcePoint"/>
                        <mxPoint x="1460" y="443" as="targetPoint"/>
                    </mxGeometry>
                </mxCell>
                <mxCell id="474" value="initializeStiffSites" parent="0" visible="0"/>
                <mxCell id="445" value="" style="shape=flexArrow;endArrow=classic;html=1;fillColor=none;strokeColor=#006EAF;strokeWidth=2;width=2;startSize=4;endSize=2.7518518518518515;endWidth=7.777777777777778;entryX=0;entryY=0;entryDx=30;entryDy=20;entryPerimeter=0;exitX=0;exitY=0.5;exitDx=0;exitDy=0;" parent="474" source="347" target="217" edge="1">
                    <mxGeometry width="50" height="50" relative="1" as="geometry">
                        <mxPoint x="540" y="1213" as="sourcePoint"/>
                        <mxPoint x="-180" y="1823" as="targetPoint"/>
                    </mxGeometry>
                </mxCell>
                <mxCell id="350" value="" style="shape=flexArrow;endArrow=classic;html=1;fillColor=none;strokeColor=#006EAF;strokeWidth=2;width=2;startSize=4;endSize=2.7518518518518515;exitX=0;exitY=0.5;exitDx=0;exitDy=0;endWidth=7.777777777777778;entryX=1;entryY=0.5;entryDx=0;entryDy=0;entryPerimeter=0;" parent="474" source="347" target="275" edge="1">
                    <mxGeometry width="50" height="50" relative="1" as="geometry">
                        <mxPoint x="536.4000000000001" y="1236.172" as="sourcePoint"/>
                        <mxPoint x="-830" y="668" as="targetPoint"/>
                    </mxGeometry>
                </mxCell>
                <mxCell id="475" value="initializePhosphorylatedSites" parent="0" visible="0"/>
                <mxCell id="356" value="" style="shape=flexArrow;endArrow=classic;html=1;fillColor=none;strokeColor=#006EAF;strokeWidth=2;width=2;startSize=4;endSize=2.7518518518518515;exitX=0;exitY=0.5;exitDx=0;exitDy=0;endWidth=7.777777777777778;entryX=0;entryY=0;entryDx=30;entryDy=20;entryPerimeter=0;" parent="475" source="353" target="217" edge="1">
                    <mxGeometry width="50" height="50" relative="1" as="geometry">
                        <mxPoint x="567.5" y="1327" as="sourcePoint"/>
                        <mxPoint x="1070" y="683" as="targetPoint"/>
                    </mxGeometry>
                </mxCell>
                <mxCell id="355" value="" style="shape=flexArrow;endArrow=classic;html=1;fillColor=none;strokeColor=#006EAF;strokeWidth=2;width=2;startSize=4;endSize=2.7518518518518515;exitX=0;exitY=0.5;exitDx=0;exitDy=0;endWidth=7.777777777777778;entryX=1;entryY=0.5;entryDx=0;entryDy=0;entryPerimeter=0;" parent="475" source="353" target="304" edge="1">
                    <mxGeometry width="50" height="50" relative="1" as="geometry">
                        <mxPoint x="567.5000000000077" y="1327" as="sourcePoint"/>
                        <mxPoint x="1736.833333333333" y="852.9999999999998" as="targetPoint"/>
                    </mxGeometry>
                </mxCell>
                <mxCell id="476" value="getBasicSites" parent="0" visible="0"/>
                <mxCell id="368" value="" style="shape=flexArrow;endArrow=classic;html=1;fillColor=none;strokeColor=#006EAF;strokeWidth=2;width=2;startSize=4;endSize=2.7518518518518515;exitX=0;exitY=0.5;exitDx=0;exitDy=0;endWidth=7.777777777777778;entryX=0;entryY=0;entryDx=30;entryDy=20;entryPerimeter=0;" parent="476" source="364" target="217" edge="1">
                    <mxGeometry width="50" height="50" relative="1" as="geometry">
                        <mxPoint x="689.9999999999995" y="1410.0000000000002" as="sourcePoint"/>
                        <mxPoint x="1070" y="683" as="targetPoint"/>
                    </mxGeometry>
                </mxCell>
                <mxCell id="369" value="" style="shape=flexArrow;endArrow=classic;html=1;fillColor=none;strokeColor=#006EAF;strokeWidth=2;width=2;startSize=4;endSize=2.7518518518518515;endWidth=7.777777777777778;entryX=1;entryY=0.5;entryDx=0;entryDy=0;entryPerimeter=0;exitX=0;exitY=0.5;exitDx=0;exitDy=0;" parent="476" source="364" target="273" edge="1">
                    <mxGeometry width="50" height="50" relative="1" as="geometry">
                        <mxPoint x="40" y="670" as="sourcePoint"/>
                        <mxPoint x="1733.0958333333333" y="778" as="targetPoint"/>
                    </mxGeometry>
                </mxCell>
                <mxCell id="477" value="getFilaments" parent="0" visible="0"/>
                <mxCell id="372" value="" style="shape=flexArrow;endArrow=classic;html=1;fillColor=none;strokeColor=#006EAF;strokeWidth=2;width=2;startSize=4;endSize=2.7518518518518515;exitX=0;exitY=0.5;exitDx=0;exitDy=0;endWidth=7.777777777777778;entryX=0;entryY=0;entryDx=40;entryDy=20;entryPerimeter=0;" parent="477" source="365" target="277" edge="1">
                    <mxGeometry width="50" height="50" relative="1" as="geometry">
                        <mxPoint x="567.4999999999991" y="1327" as="sourcePoint"/>
                        <mxPoint x="1736.8333333333335" y="853.0000000000002" as="targetPoint"/>
                    </mxGeometry>
                </mxCell>
                <mxCell id="371" value="" style="shape=flexArrow;endArrow=classic;html=1;fillColor=none;strokeColor=#006EAF;strokeWidth=2;width=2;startSize=4;endSize=2.7518518518518515;endWidth=7.777777777777778;entryX=1;entryY=0.5;entryDx=0;entryDy=0;entryPerimeter=0;exitX=0;exitY=0.5;exitDx=0;exitDy=0;" parent="477" source="365" target="263" edge="1">
                    <mxGeometry width="50" height="50" relative="1" as="geometry">
                        <mxPoint x="40" y="720" as="sourcePoint"/>
                        <mxPoint x="1733.0958333333333" y="741" as="targetPoint"/>
                    </mxGeometry>
                </mxCell>
                <mxCell id="373" value="" style="shape=flexArrow;endArrow=classic;html=1;fillColor=none;strokeColor=#006EAF;strokeWidth=2;width=2;startSize=4;endSize=2.7518518518518515;exitX=0;exitY=0.5;exitDx=0;exitDy=0;endWidth=7.777777777777778;entryX=1;entryY=0.5;entryDx=0;entryDy=0;entryPerimeter=0;" parent="477" source="365" target="278" edge="1">
                    <mxGeometry width="50" height="50" relative="1" as="geometry">
                        <mxPoint x="587.500000000005" y="1524" as="sourcePoint"/>
                        <mxPoint x="1736.8333333333335" y="894.5" as="targetPoint"/>
                    </mxGeometry>
                </mxCell>
                <mxCell id="370" value="" style="shape=flexArrow;endArrow=classic;html=1;fillColor=none;strokeColor=#006EAF;strokeWidth=2;width=2;startSize=4;endSize=2.7518518518518515;exitX=0;exitY=0.5;exitDx=0;exitDy=0;endWidth=7.777777777777778;entryX=0;entryY=0;entryDx=30;entryDy=20;entryPerimeter=0;" parent="477" source="365" target="217" edge="1">
                    <mxGeometry width="50" height="50" relative="1" as="geometry">
                        <mxPoint x="577.4999999999993" y="1470" as="sourcePoint"/>
                        <mxPoint x="1070" y="683" as="targetPoint"/>
                    </mxGeometry>
                </mxCell>
                <mxCell id="479" value="metropolisJoint" parent="0" visible="0"/>
                <mxCell id="404" value="" style="shape=flexArrow;endArrow=classic;html=1;fillColor=none;strokeColor=#006EAF;strokeWidth=2;width=2;startSize=4;endSize=2.7518518518518515;exitX=0;exitY=0.5;exitDx=0;exitDy=0;endWidth=7.777777777777778;entryX=1;entryY=0.5;entryDx=0;entryDy=0;entryPerimeter=0;" parent="479" source="374" target="300" edge="1">
                    <mxGeometry width="50" height="50" relative="1" as="geometry">
                        <mxPoint x="728.4999999999957" y="1594" as="sourcePoint"/>
                        <mxPoint x="-895" y="1200" as="targetPoint"/>
                    </mxGeometry>
                </mxCell>
                <mxCell id="397" value="" style="shape=flexArrow;endArrow=classic;html=1;fillColor=none;strokeColor=#006EAF;strokeWidth=2;width=2;startSize=4;endSize=2.7518518518518515;endWidth=7.777777777777778;entryX=1;entryY=0.5;entryDx=0;entryDy=0;entryPerimeter=0;exitX=0;exitY=0.5;exitDx=0;exitDy=0;" parent="479" source="374" target="286" edge="1">
                    <mxGeometry width="50" height="50" relative="1" as="geometry">
                        <mxPoint x="700" y="1563" as="sourcePoint"/>
                        <mxPoint x="1736.8333333333335" y="935.5" as="targetPoint"/>
                    </mxGeometry>
                </mxCell>
                <mxCell id="405" value="" style="shape=flexArrow;endArrow=classic;html=1;fillColor=none;strokeColor=#006EAF;strokeWidth=2;width=2;startSize=4;endSize=2.7518518518518515;endWidth=7.777777777777778;exitX=0;exitY=0.5;exitDx=0;exitDy=0;entryX=1;entryY=0.5;entryDx=0;entryDy=0;entryPerimeter=0;" parent="479" source="374" target="301" edge="1">
                    <mxGeometry width="50" height="50" relative="1" as="geometry">
                        <mxPoint x="-310" y="841" as="sourcePoint"/>
                        <mxPoint x="-850" y="1107" as="targetPoint"/>
                    </mxGeometry>
                </mxCell>
                <mxCell id="403" value="" style="shape=flexArrow;endArrow=classic;html=1;fillColor=none;strokeColor=#006EAF;strokeWidth=2;width=2;startSize=4;endSize=2.7518518518518515;endWidth=7.777777777777778;entryX=1;entryY=0.5;entryDx=0;entryDy=0;entryPerimeter=0;exitX=0;exitY=0.5;exitDx=0;exitDy=0;" parent="479" source="374" target="299" edge="1">
                    <mxGeometry width="50" height="50" relative="1" as="geometry">
                        <mxPoint x="-310" y="841" as="sourcePoint"/>
                        <mxPoint x="1746.833333333333" y="1191" as="targetPoint"/>
                    </mxGeometry>
                </mxCell>
                <mxCell id="402" value="" style="shape=flexArrow;endArrow=classic;html=1;fillColor=none;strokeColor=#006EAF;strokeWidth=2;width=2;startSize=4;endSize=2.7518518518518515;exitX=0;exitY=0.5;exitDx=0;exitDy=0;endWidth=7.777777777777778;entryX=1;entryY=0.5;entryDx=0;entryDy=0;entryPerimeter=0;" parent="479" source="374" target="298" edge="1">
                    <mxGeometry width="50" height="50" relative="1" as="geometry">
                        <mxPoint x="708.4999999999957" y="1574" as="sourcePoint"/>
                        <mxPoint x="1736.833333333333" y="1181" as="targetPoint"/>
                    </mxGeometry>
                </mxCell>
                <mxCell id="398" value="" style="shape=flexArrow;endArrow=classic;html=1;fillColor=none;strokeColor=#006EAF;strokeWidth=2;width=2;startSize=4;endSize=2.7518518518518515;exitX=0;exitY=0.5;exitDx=0;exitDy=0;entryX=1;entryY=0.5;entryDx=0;entryDy=0;entryPerimeter=0;endWidth=7.777777777777778;" parent="479" source="374" target="231" edge="1">
                    <mxGeometry width="50" height="50" relative="1" as="geometry">
                        <mxPoint x="527.4999999999991" y="804.0000000000002" as="sourcePoint"/>
                        <mxPoint x="638" y="833" as="targetPoint"/>
                    </mxGeometry>
                </mxCell>
                <mxCell id="396" value="" style="shape=flexArrow;endArrow=classic;html=1;fillColor=none;strokeColor=#006EAF;strokeWidth=2;width=2;startSize=4;endSize=2.7518518518518515;entryX=1;entryY=0.5;entryDx=0;entryDy=0;entryPerimeter=0;endWidth=7.777777777777778;exitX=0;exitY=0.5;exitDx=0;exitDy=0;" parent="479" source="374" target="230" edge="1">
                    <mxGeometry width="50" height="50" relative="1" as="geometry">
                        <mxPoint x="537" y="893" as="sourcePoint"/>
                        <mxPoint x="648.5" y="773" as="targetPoint"/>
                    </mxGeometry>
                </mxCell>
                <mxCell id="395" value="" style="shape=flexArrow;endArrow=classic;html=1;fillColor=none;strokeColor=#006EAF;strokeWidth=2;width=2;startSize=4;endSize=2.7518518518518515;entryX=1;entryY=0.5;entryDx=0;entryDy=0;entryPerimeter=0;endWidth=7.777777777777778;exitX=0;exitY=0.5;exitDx=0;exitDy=0;" parent="479" source="374" target="228" edge="1">
                    <mxGeometry width="50" height="50" relative="1" as="geometry">
                        <mxPoint x="527" y="883" as="sourcePoint"/>
                        <mxPoint x="648.5" y="773" as="targetPoint"/>
                    </mxGeometry>
                </mxCell>
                <mxCell id="467" value="" style="shape=flexArrow;endArrow=classic;html=1;fillColor=none;strokeColor=#006EAF;strokeWidth=2;width=2;startSize=4;endSize=2.7518518518518515;exitX=0;exitY=0.5;exitDx=0;exitDy=0;endWidth=7.777777777777778;entryX=0;entryY=0;entryDx=30;entryDy=20;entryPerimeter=0;" parent="479" source="374" target="217" edge="1">
                    <mxGeometry width="50" height="50" relative="1" as="geometry">
                        <mxPoint x="-125.00000000000068" y="1066" as="sourcePoint"/>
                        <mxPoint x="-822" y="210" as="targetPoint"/>
                    </mxGeometry>
                </mxCell>
                <mxCell id="468" value="" style="shape=flexArrow;endArrow=classic;html=1;fillColor=none;strokeColor=#006EAF;strokeWidth=2;width=2;startSize=4;endSize=2.7518518518518515;entryX=0;entryY=0;entryDx=50;entryDy=20;entryPerimeter=0;endWidth=7.777777777777778;startArrow=none;exitX=0;exitY=0.5;exitDx=0;exitDy=0;" parent="479" source="374" target="233" edge="1">
                    <mxGeometry width="50" height="50" relative="1" as="geometry">
                        <mxPoint x="-150" y="830" as="sourcePoint"/>
                        <mxPoint x="-801" y="409" as="targetPoint"/>
                    </mxGeometry>
                </mxCell>
                <mxCell id="401" value="" style="shape=flexArrow;endArrow=classic;html=1;fillColor=none;strokeColor=#006EAF;strokeWidth=2;width=2;startSize=4;endSize=2.7518518518518515;exitX=0;exitY=0.5;exitDx=0;exitDy=0;endWidth=7.777777777777778;entryX=1;entryY=0.5;entryDx=0;entryDy=0;entryPerimeter=0;" parent="479" source="374" target="297" edge="1">
                    <mxGeometry width="50" height="50" relative="1" as="geometry">
                        <mxPoint x="536.4000000000001" y="1236.1719999999998" as="sourcePoint"/>
                        <mxPoint x="1736.833333333333" y="1141" as="targetPoint"/>
                    </mxGeometry>
                </mxCell>
                <mxCell id="400" value="" style="shape=flexArrow;endArrow=classic;html=1;fillColor=none;strokeColor=#006EAF;strokeWidth=2;width=2;startSize=4;endSize=2.7518518518518515;exitX=0;exitY=0.5;exitDx=0;exitDy=0;endWidth=7.777777777777778;entryX=1;entryY=0.5;entryDx=0;entryDy=0;entryPerimeter=0;" parent="479" source="374" target="234" edge="1">
                    <mxGeometry width="50" height="50" relative="1" as="geometry">
                        <mxPoint x="718.4999999999957" y="1584" as="sourcePoint"/>
                        <mxPoint x="-830" y="980" as="targetPoint"/>
                    </mxGeometry>
                </mxCell>
                <mxCell id="399" value="" style="shape=flexArrow;endArrow=classic;html=1;fillColor=none;strokeColor=#006EAF;strokeWidth=2;width=2;startSize=4;endSize=2.7518518518518515;exitX=0;exitY=0.5;exitDx=0;exitDy=0;entryX=0;entryY=0;entryDx=42;entryDy=20;entryPerimeter=0;endWidth=7.777777777777778;" parent="479" source="374" target="232" edge="1">
                    <mxGeometry width="50" height="50" relative="1" as="geometry">
                        <mxPoint x="708.4999999999957" y="1574" as="sourcePoint"/>
                        <mxPoint x="638" y="833" as="targetPoint"/>
                    </mxGeometry>
                </mxCell>
                <mxCell id="394" value="" style="shape=flexArrow;endArrow=classic;html=1;fillColor=none;strokeColor=#006EAF;strokeWidth=2;width=2;startSize=4;endSize=2.7518518518518515;entryX=0;entryY=0;entryDx=107;entryDy=20;entryPerimeter=0;endWidth=7.777777777777778;exitX=0;exitY=0.5;exitDx=0;exitDy=0;" parent="479" source="374" target="221" edge="1">
                    <mxGeometry width="50" height="50" relative="1" as="geometry">
                        <mxPoint x="660" y="1664.7777777777778" as="sourcePoint"/>
                        <mxPoint x="620" y="642.9999999999998" as="targetPoint"/>
                    </mxGeometry>
                </mxCell>
                <mxCell id="480" value="stationarity" parent="0" visible="0"/>
                <mxCell id="456" value="" style="shape=flexArrow;endArrow=classic;html=1;fillColor=none;strokeColor=#006EAF;strokeWidth=2;width=2;startSize=4;endSize=2.7518518518518515;exitX=0;exitY=0.5;exitDx=0;exitDy=0;endWidth=7.777777777777778;entryX=0;entryY=0;entryDx=30;entryDy=20;entryPerimeter=0;" parent="480" source="375" target="217" edge="1">
                    <mxGeometry width="50" height="50" relative="1" as="geometry">
                        <mxPoint x="-180.00000000000568" y="1001" as="sourcePoint"/>
                        <mxPoint x="-451" y="210" as="targetPoint"/>
                    </mxGeometry>
                </mxCell>
                <mxCell id="481" value="appendBins" parent="0" visible="0"/>
                <mxCell id="382" value="" style="shape=flexArrow;endArrow=classic;html=1;fillColor=none;strokeColor=#006EAF;strokeWidth=2;width=2;startSize=4;endSize=2.7518518518518515;exitX=0;exitY=0.5;exitDx=0;exitDy=0;endWidth=7.777777777777778;entryX=0;entryY=0;entryDx=30;entryDy=20;entryPerimeter=0;" parent="481" source="376" target="217" edge="1">
                    <mxGeometry width="50" height="50" relative="1" as="geometry">
                        <mxPoint x="587.4999999999966" y="1524.0000000000002" as="sourcePoint"/>
                        <mxPoint x="990" y="913" as="targetPoint"/>
                    </mxGeometry>
                </mxCell>
                <mxCell id="482" value="main" parent="0" visible="0"/>
                <mxCell id="433" value="" style="shape=flexArrow;endArrow=classic;html=1;fillColor=none;strokeColor=#006EAF;strokeWidth=2;width=2;startSize=4;endSize=2.7518518518518515;exitX=0;exitY=1;exitDx=0;exitDy=0;endWidth=7.777777777777778;entryX=1;entryY=0.5;entryDx=0;entryDy=0;entryPerimeter=0;" parent="482" source="406" target="294" edge="1">
                    <mxGeometry width="50" height="50" relative="1" as="geometry">
                        <mxPoint x="-145" y="1497.0000000000002" as="sourcePoint"/>
                        <mxPoint x="-250" y="1613" as="targetPoint"/>
                    </mxGeometry>
                </mxCell>
                <mxCell id="483" value="Polymer-C" style="text;html=1;resizable=0;autosize=1;align=center;verticalAlign=middle;points=[];fillColor=none;strokeColor=none;rounded=0;fontSize=73;fontStyle=5" parent="482" vertex="1">
                    <mxGeometry x="-372" y="1100" width="380" height="90" as="geometry"/>
                </mxCell>
            </root>
        </mxGraphModel>
    </diagram>
</mxfile>